<svg width="24" height="24" viewBox="0 0 24 24" fill="none" xmlns="http://www.w3.org/2000/svg">
<g clip-path="url(#clip0_3801_884)">
<g clip-path="url(#clip1_3801_884)">
<path d="M16.9873 15.6966L20.2032 18.9055C20.3698 19.0721 20.5433 19.2336 20.7018 19.4101C20.7909 19.4926 20.8622 19.5924 20.9113 19.7034C20.9604 19.8144 20.9863 19.9342 20.9875 20.0556C20.9887 20.177 20.9651 20.2973 20.9181 20.4092C20.8711 20.5211 20.8018 20.6223 20.7144 20.7065C20.6269 20.7906 20.5232 20.856 20.4096 20.8987C20.296 20.9414 20.1748 20.9605 20.0536 20.9547C19.9324 20.9489 19.8136 20.9184 19.7045 20.8651C19.5955 20.8118 19.4985 20.7368 19.4195 20.6447C18.3355 19.5807 17.2466 18.5196 16.2015 17.4177C16.1317 17.3136 16.0413 17.2248 15.9359 17.1568C15.8305 17.0888 15.7123 17.043 15.5886 17.0223C15.4649 17.0016 15.3383 17.0064 15.2165 17.0363C15.0947 17.0662 14.9803 17.1207 14.8803 17.1964C13.8676 17.7094 12.7516 17.9854 11.6165 18.0036C10.4815 18.0217 9.35719 17.7816 8.32861 17.3014C7.30004 16.8211 6.39414 16.1133 5.67939 15.2314C4.96463 14.3495 4.45974 13.3166 4.2029 12.2108C3.94606 11.1051 3.94399 9.95543 4.19685 8.84877C4.4497 7.74211 4.95086 6.70745 5.66244 5.82298C6.37401 4.93851 7.27737 4.22741 8.30421 3.74343C9.33105 3.25946 10.4545 3.01529 11.5895 3.02939C12.9629 3.0494 14.3045 3.44564 15.4684 4.17499C16.6323 4.90434 17.5739 5.93885 18.1908 7.16605C18.8077 8.39325 19.0762 9.76612 18.9672 11.1353C18.8583 12.5045 18.3759 13.8176 17.5727 14.9318C17.4011 15.1681 17.2177 15.3905 16.9873 15.6966ZM11.4659 16.2162C12.5922 16.2225 13.6951 15.8944 14.6349 15.2735C15.5747 14.6526 16.3091 13.7668 16.7451 12.7282C17.1811 11.6897 17.2991 10.5451 17.0842 9.43942C16.8692 8.33375 16.3311 7.31672 15.5378 6.51713C14.7444 5.71753 13.7317 5.17132 12.6278 4.94768C11.5238 4.72403 10.3784 4.833 9.33639 5.26079C8.29443 5.68858 7.40284 6.41596 6.77453 7.3508C6.14622 8.28564 5.80948 9.3859 5.8069 10.5123C5.80097 11.2592 5.94295 11.9999 6.22469 12.6916C6.50643 13.3834 6.92236 14.0126 7.44844 14.5428C7.97452 15.0731 8.60036 15.4939 9.28989 15.7811C9.97941 16.0683 10.719 16.2162 11.4659 16.2162Z" fill="black"/>
</g>
</g>
<defs>
<clipPath id="clip0_3801_884">
<rect width="24" height="24" fill="white"/>
</clipPath>
<clipPath id="clip1_3801_884">
<rect width="17" height="18" fill="white" transform="translate(4 3)"/>
</clipPath>
</defs>
</svg>
