<svg width="151" height="48" viewBox="0 0 151 48" fill="none" xmlns="http://www.w3.org/2000/svg">
<rect width="151" height="48" rx="14" fill="#3F51B5"/>
<path fill-rule="evenodd" clip-rule="evenodd" d="M36 25.2002C32.134 25.2002 29 28.1252 29 31.7335V33.6002C29 34.1156 28.5523 34.5335 28 34.5335C27.4477 34.5335 27 34.1156 27 33.6002V31.7335C27 27.0943 31.0294 23.3335 36 23.3335C40.9706 23.3335 45 27.0943 45 31.7335V33.6002C45 34.1156 44.5523 34.5335 44 34.5335C43.4477 34.5335 43 34.1156 43 33.6002V31.7335C43 28.1252 39.866 25.2002 36 25.2002Z" fill="white"/>
<path fill-rule="evenodd" clip-rule="evenodd" d="M36 23.3333C38.2091 23.3333 40 21.6619 40 19.6C40 17.5381 38.2091 15.8667 36 15.8667C33.7909 15.8667 32 17.5381 32 19.6C32 21.6619 33.7909 23.3333 36 23.3333ZM36 25.2C39.3137 25.2 42 22.6928 42 19.6C42 16.5072 39.3137 14 36 14C32.6863 14 30 16.5072 30 19.6C30 22.6928 32.6863 25.2 36 25.2Z" fill="white"/>
<path d="M72.096 31H69L64.338 24.484V31H61.62V18.148H64.338V24.376L68.946 18.148H71.844L67.164 24.322L72.096 31ZM76.0898 25.06C76.0898 25.264 76.0778 25.516 76.0538 25.816C76.0418 26.116 76.0238 26.422 75.9998 26.734C75.9878 27.046 75.9698 27.322 75.9458 27.562C75.9218 27.802 75.9038 27.97 75.8918 28.066L80.4278 21.172H83.6498V31H81.0578V27.076C81.0578 26.752 81.0698 26.398 81.0938 26.014C81.1178 25.618 81.1418 25.252 81.1658 24.916C81.2018 24.568 81.2258 24.304 81.2378 24.124L76.7197 31H73.4978V21.172H76.0898V25.06ZM91.9248 20.992C93.0288 20.992 93.9228 21.424 94.6068 22.288C95.2908 23.14 95.6328 24.4 95.6328 26.068C95.6328 27.184 95.4708 28.126 95.1468 28.894C94.8228 29.65 94.3788 30.22 93.8148 30.604C93.2508 30.988 92.5968 31.18 91.8528 31.18C91.3848 31.18 90.9768 31.12 90.6288 31C90.2928 30.88 90.0048 30.724 89.7648 30.532C89.5248 30.34 89.3148 30.136 89.1348 29.92H88.9908C89.0388 30.148 89.0748 30.388 89.0988 30.64C89.1228 30.88 89.1348 31.12 89.1348 31.36V35.32H86.4528V21.172H88.6308L89.0088 22.45H89.1348C89.3148 22.186 89.5308 21.946 89.7828 21.73C90.0348 21.502 90.3348 21.322 90.6828 21.19C91.0428 21.058 91.4568 20.992 91.9248 20.992ZM91.0608 23.134C90.5928 23.134 90.2208 23.23 89.9448 23.422C89.6688 23.614 89.4648 23.908 89.3328 24.304C89.2128 24.688 89.1468 25.174 89.1348 25.762V26.05C89.1348 26.686 89.1948 27.226 89.3148 27.67C89.4348 28.102 89.6388 28.432 89.9268 28.66C90.2148 28.888 90.6048 29.002 91.0968 29.002C91.5048 29.002 91.8408 28.888 92.1048 28.66C92.3688 28.432 92.5668 28.096 92.6988 27.652C92.8308 27.208 92.8968 26.668 92.8968 26.032C92.8968 25.072 92.7468 24.352 92.4468 23.872C92.1588 23.38 91.6968 23.134 91.0608 23.134ZM100.435 25.06C100.435 25.264 100.423 25.516 100.399 25.816C100.387 26.116 100.369 26.422 100.345 26.734C100.333 27.046 100.315 27.322 100.291 27.562C100.267 27.802 100.249 27.97 100.237 28.066L104.773 21.172H107.995V31H105.403V27.076C105.403 26.752 105.415 26.398 105.439 26.014C105.463 25.618 105.487 25.252 105.511 24.916C105.547 24.568 105.571 24.304 105.583 24.124L101.065 31H97.8435V21.172H100.435V25.06ZM125.433 21.172V31H110.799V21.172H113.481V28.984H116.775V21.172H119.457V28.984H122.751V21.172H125.433Z" fill="white"/>
</svg>
