<svg width="148" height="56" viewBox="0 0 148 56" fill="none" xmlns="http://www.w3.org/2000/svg">
<g filter="url(#filter0_d_38_14789)">
<rect x="4" y="2" width="140" height="48" rx="10" fill="#3478F7" shape-rendering="crispEdges"/>
<path d="M37.5 26C39.71 26 41.5 24.21 41.5 22C41.5 19.79 39.71 18 37.5 18C35.29 18 33.5 19.79 33.5 22C33.5 24.21 35.29 26 37.5 26ZM28.5 24V21H26.5V24H23.5V26H26.5V29H28.5V26H31.5V24H28.5ZM37.5 28C34.83 28 29.5 29.34 29.5 32V34H45.5V32C45.5 29.34 40.17 28 37.5 28Z" fill="white"/>
<path d="M58.804 33V27.544L54.676 21.08H56.452L59.908 26.504H59.268L62.708 21.08H64.484L60.388 27.544V33H58.804ZM67.2113 33.192C66.6459 33.192 66.1446 33.0907 65.7073 32.888C65.2806 32.6747 64.9446 32.3867 64.6993 32.024C64.4539 31.6507 64.3313 31.224 64.3313 30.744C64.3313 30.2853 64.4273 29.8747 64.6193 29.512C64.8219 29.1387 65.1313 28.824 65.5473 28.568C65.9739 28.312 66.5073 28.1307 67.1473 28.024L70.3473 27.496V28.744L67.4833 29.224C66.9286 29.32 66.5233 29.496 66.2673 29.752C66.0219 30.008 65.8993 30.3227 65.8993 30.696C65.8993 31.048 66.0379 31.3413 66.3153 31.576C66.6033 31.8107 66.9606 31.928 67.3873 31.928C67.9313 31.928 68.4006 31.816 68.7953 31.592C69.2006 31.3573 69.5153 31.0427 69.7393 30.648C69.9739 30.2533 70.0913 29.816 70.0913 29.336V27.144C70.0913 26.6747 69.9153 26.296 69.5633 26.008C69.2219 25.7093 68.7686 25.56 68.2033 25.56C67.7126 25.56 67.2753 25.688 66.8913 25.944C66.5179 26.1893 66.2406 26.52 66.0593 26.936L64.7633 26.264C64.9233 25.8693 65.1793 25.5173 65.5312 25.208C65.8833 24.888 66.2939 24.6373 66.7633 24.456C67.2326 24.2747 67.7233 24.184 68.2352 24.184C68.8966 24.184 69.4779 24.312 69.9793 24.568C70.4806 24.8133 70.8699 25.16 71.1473 25.608C71.4353 26.0453 71.5793 26.5573 71.5793 27.144V33H70.1233V31.368L70.3953 31.464C70.2139 31.8053 69.9686 32.104 69.6593 32.36C69.3499 32.616 68.9873 32.8187 68.5713 32.968C68.1553 33.1173 67.7019 33.192 67.2113 33.192ZM73.8864 33V24.376H75.3424V25.96L75.1824 25.736C75.385 25.2453 75.6944 24.8827 76.1104 24.648C76.5264 24.4027 77.033 24.28 77.6304 24.28H78.1584V25.688H77.4064C76.7984 25.688 76.3077 25.88 75.9344 26.264C75.561 26.6373 75.3744 27.1707 75.3744 27.864V33H73.8864ZM82.0081 33.192C81.4428 33.192 80.9415 33.0907 80.5041 32.888C80.0775 32.6747 79.7415 32.3867 79.4961 32.024C79.2508 31.6507 79.1281 31.224 79.1281 30.744C79.1281 30.2853 79.2241 29.8747 79.4161 29.512C79.6188 29.1387 79.9281 28.824 80.3441 28.568C80.7708 28.312 81.3041 28.1307 81.9441 28.024L85.1441 27.496V28.744L82.2801 29.224C81.7255 29.32 81.3201 29.496 81.0641 29.752C80.8188 30.008 80.6961 30.3227 80.6961 30.696C80.6961 31.048 80.8348 31.3413 81.1121 31.576C81.4001 31.8107 81.7575 31.928 82.1841 31.928C82.7281 31.928 83.1975 31.816 83.5921 31.592C83.9975 31.3573 84.3121 31.0427 84.5361 30.648C84.7708 30.2533 84.8881 29.816 84.8881 29.336V27.144C84.8881 26.6747 84.7121 26.296 84.3601 26.008C84.0188 25.7093 83.5655 25.56 83.0001 25.56C82.5095 25.56 82.0721 25.688 81.6881 25.944C81.3148 26.1893 81.0375 26.52 80.8561 26.936L79.5601 26.264C79.7201 25.8693 79.9761 25.5173 80.3281 25.208C80.6801 24.888 81.0908 24.6373 81.5601 24.456C82.0295 24.2747 82.5201 24.184 83.0321 24.184C83.6935 24.184 84.2748 24.312 84.7761 24.568C85.2775 24.8133 85.6668 25.16 85.9441 25.608C86.2321 26.0453 86.3761 26.5573 86.3761 27.144V33H84.9201V31.368L85.1921 31.464C85.0108 31.8053 84.7655 32.104 84.4561 32.36C84.1468 32.616 83.7841 32.8187 83.3681 32.968C82.9521 33.1173 82.4988 33.192 82.0081 33.192ZM92.031 33.096C91.1883 33.096 90.5377 32.856 90.079 32.376C89.631 31.896 89.407 31.2187 89.407 30.344V25.8H87.839V24.376H88.159C88.543 24.376 88.847 24.2587 89.071 24.024C89.295 23.7893 89.407 23.48 89.407 23.096V22.392H90.895V24.376H92.831V25.8H90.895V30.296C90.895 30.584 90.9377 30.8347 91.023 31.048C91.119 31.2613 91.2737 31.432 91.487 31.56C91.7003 31.6773 91.983 31.736 92.335 31.736C92.4097 31.736 92.5003 31.7307 92.607 31.72C92.7243 31.7093 92.831 31.6987 92.927 31.688V33C92.7883 33.032 92.6337 33.0533 92.463 33.064C92.2923 33.0853 92.1483 33.096 92.031 33.096ZM94.8708 33V24.376H96.3588V33H94.8708ZM94.8708 23V21.08H96.3588V23H94.8708ZM101.756 33.192C100.892 33.192 100.14 32.9787 99.4996 32.552C98.8596 32.1253 98.4063 31.5493 98.1396 30.824L99.3236 30.248C99.569 30.76 99.905 31.1653 100.332 31.464C100.758 31.7627 101.233 31.912 101.756 31.912C102.225 31.912 102.614 31.8 102.924 31.576C103.233 31.352 103.388 31.0587 103.388 30.696C103.388 30.44 103.313 30.2373 103.164 30.088C103.025 29.928 102.854 29.8053 102.652 29.72C102.449 29.624 102.262 29.5547 102.092 29.512L100.796 29.144C100.017 28.92 99.4463 28.6 99.0836 28.184C98.7316 27.768 98.5556 27.2827 98.5556 26.728C98.5556 26.216 98.6836 25.7733 98.9396 25.4C99.2063 25.016 99.5636 24.7173 100.012 24.504C100.47 24.2907 100.982 24.184 101.548 24.184C102.305 24.184 102.982 24.376 103.58 24.76C104.188 25.144 104.62 25.6827 104.876 26.376L103.66 26.936C103.468 26.488 103.18 26.136 102.796 25.88C102.412 25.6133 101.98 25.48 101.5 25.48C101.062 25.48 100.716 25.592 100.46 25.816C100.204 26.0293 100.076 26.3013 100.076 26.632C100.076 26.8773 100.14 27.08 100.268 27.24C100.396 27.3893 100.55 27.5067 100.732 27.592C100.913 27.6667 101.089 27.7307 101.26 27.784L102.668 28.2C103.372 28.4027 103.916 28.7173 104.3 29.144C104.694 29.5707 104.892 30.0827 104.892 30.68C104.892 31.16 104.758 31.592 104.492 31.976C104.225 32.36 103.857 32.6587 103.388 32.872C102.918 33.0853 102.374 33.192 101.756 33.192ZM106.84 33V20.888H108.328V26.056L108.056 25.912C108.269 25.368 108.61 24.9467 109.08 24.648C109.56 24.3387 110.12 24.184 110.76 24.184C111.378 24.184 111.928 24.3227 112.408 24.6C112.898 24.8773 113.282 25.2613 113.56 25.752C113.848 26.2427 113.992 26.7973 113.992 27.416V33H112.488V27.896C112.488 27.416 112.397 27.0107 112.216 26.68C112.045 26.3493 111.805 26.0933 111.496 25.912C111.186 25.72 110.829 25.624 110.424 25.624C110.029 25.624 109.672 25.72 109.352 25.912C109.032 26.0933 108.781 26.3547 108.6 26.696C108.418 27.0267 108.328 27.4267 108.328 27.896V33H106.84Z" fill="white"/>
</g>
<defs>
<filter id="filter0_d_38_14789" x="0" y="0" width="148" height="56" filterUnits="userSpaceOnUse" color-interpolation-filters="sRGB">
<feFlood flood-opacity="0" result="BackgroundImageFix"/>
<feColorMatrix in="SourceAlpha" type="matrix" values="0 0 0 0 0 0 0 0 0 0 0 0 0 0 0 0 0 0 127 0" result="hardAlpha"/>
<feOffset dy="2"/>
<feGaussianBlur stdDeviation="2"/>
<feComposite in2="hardAlpha" operator="out"/>
<feColorMatrix type="matrix" values="0 0 0 0 0.203922 0 0 0 0 0.470588 0 0 0 0 0.968627 0 0 0 0.3 0"/>
<feBlend mode="normal" in2="BackgroundImageFix" result="effect1_dropShadow_38_14789"/>
<feBlend mode="normal" in="SourceGraphic" in2="effect1_dropShadow_38_14789" result="shape"/>
</filter>
</defs>
</svg>
