<svg width="327" height="199" viewBox="0 0 327 199" fill="none" xmlns="http://www.w3.org/2000/svg">
<g clip-path="url(#clip0_0_916)">
<path opacity="0.8" d="M8.56107 142.135C7.48107 142.145 6.55607 141.945 5.78607 141.535C5.01607 141.115 4.42607 140.51 4.01607 139.72C3.60607 138.93 3.40107 137.98 3.40107 136.87C3.40107 135.76 3.62107 134.78 4.06107 133.93C4.50107 133.07 5.12107 132.4 5.92107 131.92C6.73107 131.44 7.68607 131.2 8.78607 131.2C9.76607 131.2 10.6261 131.42 11.3661 131.86C12.1061 132.3 12.6811 132.915 13.0911 133.705C13.5011 134.485 13.7061 135.405 13.7061 136.465C13.7061 137.615 13.4811 138.615 13.0311 139.465C12.5911 140.305 11.9811 140.96 11.2011 141.43C10.4311 141.9 9.55107 142.135 8.56107 142.135ZM8.50107 140.38C9.13107 140.38 9.68607 140.225 10.1661 139.915C10.6561 139.605 11.0361 139.16 11.3061 138.58C11.5861 138 11.7261 137.295 11.7261 136.465C11.7261 135.395 11.4561 134.54 10.9161 133.9C10.3761 133.26 9.65107 132.94 8.74107 132.94C8.09107 132.94 7.51107 133.105 7.00107 133.435C6.50107 133.765 6.10607 134.22 5.81607 134.8C5.52607 135.38 5.38107 136.06 5.38107 136.84C5.38107 137.97 5.65607 138.845 6.20607 139.465C6.76607 140.075 7.53107 140.38 8.50107 140.38ZM17.7762 142.135C16.9362 142.135 16.3012 141.85 15.8712 141.28C15.4512 140.71 15.2462 139.92 15.2562 138.91L15.2862 134.425H17.1162L17.0862 138.745C17.0762 139.265 17.1662 139.675 17.3562 139.975C17.5462 140.275 17.8462 140.425 18.2562 140.425C18.5762 140.425 18.8712 140.33 19.1412 140.14C19.4212 139.95 19.6612 139.63 19.8612 139.18C20.0612 138.72 20.2162 138.105 20.3262 137.335C20.4462 136.555 20.5062 135.585 20.5062 134.425H22.2762V142H20.4312L20.5362 140.275C20.2362 140.885 19.8462 141.35 19.3662 141.67C18.8962 141.98 18.3662 142.135 17.7762 142.135ZM29.0835 136.195C28.8835 136.125 28.6285 136.09 28.3185 136.09C27.7785 136.09 27.3435 136.29 27.0135 136.69C26.6835 137.08 26.4385 137.71 26.2785 138.58C26.1285 139.44 26.0535 140.58 26.0535 142H24.2385V137.11L24.2235 134.425H26.0535L25.9635 136.54C26.2235 135.73 26.5835 135.155 27.0435 134.815C27.5135 134.475 28.0135 134.305 28.5435 134.305C28.7035 134.305 28.8535 134.315 28.9935 134.335C29.1335 134.355 29.2635 134.385 29.3835 134.425L29.0835 136.195ZM33.994 145V134.425H35.839L35.779 135.775C36.049 135.305 36.399 134.945 36.829 134.695C37.259 134.435 37.759 134.305 38.329 134.305C38.999 134.305 39.564 134.46 40.024 134.77C40.484 135.08 40.834 135.505 41.074 136.045C41.314 136.585 41.434 137.2 41.434 137.89C41.434 138.73 41.269 139.47 40.939 140.11C40.609 140.75 40.154 141.25 39.574 141.61C39.004 141.96 38.354 142.135 37.624 142.135C37.244 142.135 36.899 142.07 36.589 141.94C36.279 141.81 36.019 141.635 35.809 141.415L35.824 142V145H33.994ZM37.489 140.53C38.119 140.53 38.619 140.29 38.989 139.81C39.359 139.33 39.544 138.71 39.544 137.95C39.544 137.31 39.404 136.815 39.124 136.465C38.844 136.105 38.459 135.925 37.969 135.925C37.559 135.925 37.194 136.04 36.874 136.27C36.554 136.49 36.299 136.805 36.109 137.215C35.919 137.615 35.824 138.08 35.824 138.61C35.824 139.2 35.974 139.67 36.274 140.02C36.574 140.36 36.979 140.53 37.489 140.53ZM47.8775 136.195C47.6775 136.125 47.4225 136.09 47.1125 136.09C46.5725 136.09 46.1375 136.29 45.8075 136.69C45.4775 137.08 45.2325 137.71 45.0725 138.58C44.9225 139.44 44.8475 140.58 44.8475 142H43.0325V137.11L43.0175 134.425H44.8475L44.7575 136.54C45.0175 135.73 45.3775 135.155 45.8375 134.815C46.3075 134.475 46.8075 134.305 47.3375 134.305C47.4975 134.305 47.6475 134.315 47.7875 134.335C47.9275 134.355 48.0575 134.385 48.1775 134.425L47.8775 136.195ZM52.344 134.305C53.474 134.305 54.359 134.645 54.999 135.325C55.649 135.995 55.974 136.905 55.974 138.055C55.974 138.835 55.809 139.535 55.479 140.155C55.159 140.765 54.704 141.25 54.114 141.61C53.524 141.96 52.839 142.135 52.059 142.135C50.929 142.135 50.039 141.8 49.389 141.13C48.749 140.46 48.429 139.545 48.429 138.385C48.429 137.605 48.589 136.91 48.909 136.3C49.239 135.68 49.694 135.195 50.274 134.845C50.864 134.485 51.554 134.305 52.344 134.305ZM52.119 140.53C52.709 140.53 53.184 140.305 53.544 139.855C53.904 139.405 54.084 138.805 54.084 138.055C54.084 137.375 53.924 136.85 53.604 136.48C53.294 136.11 52.864 135.925 52.314 135.925C51.704 135.925 51.219 136.15 50.859 136.6C50.499 137.05 50.319 137.645 50.319 138.385C50.319 139.065 50.474 139.595 50.784 139.975C51.104 140.345 51.549 140.53 52.119 140.53ZM60.9384 142.135C59.7884 142.135 58.8784 141.805 58.2084 141.145C57.5384 140.475 57.2034 139.545 57.2034 138.355C57.2034 137.555 57.3684 136.85 57.6984 136.24C58.0284 135.63 58.4884 135.155 59.0784 134.815C59.6684 134.475 60.3484 134.305 61.1184 134.305C61.7584 134.305 62.3184 134.43 62.7984 134.68C63.2784 134.93 63.6684 135.32 63.9684 135.85L62.6634 136.84C62.4734 136.52 62.2534 136.29 62.0034 136.15C61.7634 136.01 61.4684 135.94 61.1184 135.94C60.5284 135.94 60.0434 136.16 59.6634 136.6C59.2934 137.04 59.1084 137.62 59.1084 138.34C59.1084 139.04 59.2734 139.58 59.6034 139.96C59.9434 140.33 60.4284 140.515 61.0584 140.515C61.3884 140.515 61.6934 140.44 61.9734 140.29C62.2634 140.14 62.5034 139.905 62.6934 139.585L63.9684 140.605C63.6284 141.155 63.1984 141.55 62.6784 141.79C62.1584 142.02 61.5784 142.135 60.9384 142.135ZM68.2829 142.135C67.4629 142.135 66.7529 141.985 66.1529 141.685C65.5629 141.375 65.1079 140.935 64.7879 140.365C64.4679 139.795 64.3079 139.115 64.3079 138.325C64.3079 137.535 64.4729 136.84 64.8029 136.24C65.1329 135.63 65.5779 135.155 66.1379 134.815C66.7079 134.475 67.3529 134.305 68.0729 134.305C69.2429 134.305 70.1029 134.705 70.6529 135.505C71.2129 136.295 71.4079 137.39 71.2379 138.79H66.1679C66.2079 139.32 66.4229 139.745 66.8129 140.065C67.2029 140.385 67.7379 140.545 68.4179 140.545C68.7379 140.545 69.0579 140.475 69.3779 140.335C69.7079 140.195 69.9879 139.98 70.2179 139.69L71.2829 140.77C70.9429 141.2 70.5279 141.535 70.0379 141.775C69.5579 142.015 68.9729 142.135 68.2829 142.135ZM68.1029 135.685C67.5929 135.685 67.1729 135.845 66.8429 136.165C66.5129 136.485 66.3029 136.915 66.2129 137.455H69.6629C69.6829 136.835 69.5479 136.385 69.2579 136.105C68.9679 135.825 68.5829 135.685 68.1029 135.685ZM75.4674 142.135C74.4274 142.135 73.6324 141.94 73.0824 141.55C72.5324 141.15 72.2124 140.595 72.1224 139.885L73.6674 139.51C73.7274 139.89 73.9024 140.185 74.1924 140.395C74.4824 140.595 74.8974 140.695 75.4374 140.695C75.8774 140.695 76.2074 140.625 76.4274 140.485C76.6574 140.345 76.7724 140.155 76.7724 139.915C76.7724 139.675 76.6474 139.49 76.3974 139.36C76.1574 139.23 75.7824 139.115 75.2724 139.015C74.7024 138.905 74.2124 138.765 73.8024 138.595C73.4024 138.425 73.0924 138.195 72.8724 137.905C72.6624 137.605 72.5574 137.215 72.5574 136.735C72.5574 136.275 72.6874 135.865 72.9474 135.505C73.2074 135.135 73.5624 134.845 74.0124 134.635C74.4724 134.415 74.9974 134.305 75.5874 134.305C76.3774 134.305 77.0224 134.49 77.5224 134.86C78.0324 135.23 78.3374 135.705 78.4374 136.285L76.9224 136.69C76.8524 136.4 76.7024 136.175 76.4724 136.015C76.2424 135.845 75.9324 135.76 75.5424 135.76C75.1524 135.76 74.8524 135.84 74.6424 136C74.4424 136.16 74.3424 136.36 74.3424 136.6C74.3424 136.84 74.4574 137.03 74.6874 137.17C74.9274 137.3 75.3324 137.425 75.9024 137.545C76.4324 137.655 76.8924 137.795 77.2824 137.965C77.6824 138.125 77.9974 138.35 78.2274 138.64C78.4574 138.92 78.5724 139.3 78.5724 139.78C78.5724 140.25 78.4374 140.665 78.1674 141.025C77.9074 141.375 77.5424 141.65 77.0724 141.85C76.6024 142.04 76.0674 142.135 75.4674 142.135ZM82.5426 142.135C81.5026 142.135 80.7076 141.94 80.1576 141.55C79.6076 141.15 79.2876 140.595 79.1976 139.885L80.7426 139.51C80.8026 139.89 80.9776 140.185 81.2676 140.395C81.5576 140.595 81.9726 140.695 82.5126 140.695C82.9526 140.695 83.2826 140.625 83.5026 140.485C83.7326 140.345 83.8476 140.155 83.8476 139.915C83.8476 139.675 83.7226 139.49 83.4726 139.36C83.2326 139.23 82.8576 139.115 82.3476 139.015C81.7776 138.905 81.2876 138.765 80.8776 138.595C80.4776 138.425 80.1676 138.195 79.9476 137.905C79.7376 137.605 79.6326 137.215 79.6326 136.735C79.6326 136.275 79.7626 135.865 80.0226 135.505C80.2826 135.135 80.6376 134.845 81.0876 134.635C81.5476 134.415 82.0726 134.305 82.6626 134.305C83.4526 134.305 84.0976 134.49 84.5976 134.86C85.1076 135.23 85.4126 135.705 85.5126 136.285L83.9976 136.69C83.9276 136.4 83.7776 136.175 83.5476 136.015C83.3176 135.845 83.0076 135.76 82.6176 135.76C82.2276 135.76 81.9276 135.84 81.7176 136C81.5176 136.16 81.4176 136.36 81.4176 136.6C81.4176 136.84 81.5326 137.03 81.7626 137.17C82.0026 137.3 82.4076 137.425 82.9776 137.545C83.5076 137.655 83.9676 137.795 84.3576 137.965C84.7576 138.125 85.0726 138.35 85.3026 138.64C85.5326 138.92 85.6476 139.3 85.6476 139.78C85.6476 140.25 85.5126 140.665 85.2426 141.025C84.9826 141.375 84.6176 141.65 84.1476 141.85C83.6776 142.04 83.1426 142.135 82.5426 142.135ZM90.5778 142.135C89.7578 142.135 89.0478 141.985 88.4478 141.685C87.8578 141.375 87.4028 140.935 87.0828 140.365C86.7628 139.795 86.6028 139.115 86.6028 138.325C86.6028 137.535 86.7678 136.84 87.0978 136.24C87.4278 135.63 87.8728 135.155 88.4328 134.815C89.0028 134.475 89.6478 134.305 90.3678 134.305C91.5378 134.305 92.3978 134.705 92.9478 135.505C93.5078 136.295 93.7028 137.39 93.5328 138.79H88.4628C88.5028 139.32 88.7178 139.745 89.1078 140.065C89.4978 140.385 90.0328 140.545 90.7128 140.545C91.0328 140.545 91.3528 140.475 91.6728 140.335C92.0028 140.195 92.2828 139.98 92.5128 139.69L93.5778 140.77C93.2378 141.2 92.8228 141.535 92.3328 141.775C91.8528 142.015 91.2678 142.135 90.5778 142.135ZM90.3978 135.685C89.8878 135.685 89.4678 135.845 89.1378 136.165C88.8078 136.485 88.5978 136.915 88.5078 137.455H91.9578C91.9778 136.835 91.8428 136.385 91.5528 136.105C91.2628 135.825 90.8778 135.685 90.3978 135.685ZM97.7623 142.135C96.7223 142.135 95.9273 141.94 95.3773 141.55C94.8273 141.15 94.5073 140.595 94.4173 139.885L95.9623 139.51C96.0223 139.89 96.1973 140.185 96.4873 140.395C96.7773 140.595 97.1923 140.695 97.7323 140.695C98.1723 140.695 98.5023 140.625 98.7223 140.485C98.9523 140.345 99.0673 140.155 99.0673 139.915C99.0673 139.675 98.9423 139.49 98.6923 139.36C98.4523 139.23 98.0773 139.115 97.5673 139.015C96.9973 138.905 96.5073 138.765 96.0973 138.595C95.6973 138.425 95.3873 138.195 95.1673 137.905C94.9573 137.605 94.8523 137.215 94.8523 136.735C94.8523 136.275 94.9823 135.865 95.2423 135.505C95.5023 135.135 95.8573 134.845 96.3073 134.635C96.7673 134.415 97.2923 134.305 97.8823 134.305C98.6723 134.305 99.3173 134.49 99.8173 134.86C100.327 135.23 100.632 135.705 100.732 136.285L99.2173 136.69C99.1473 136.4 98.9973 136.175 98.7673 136.015C98.5373 135.845 98.2273 135.76 97.8373 135.76C97.4473 135.76 97.1473 135.84 96.9373 136C96.7373 136.16 96.6373 136.36 96.6373 136.6C96.6373 136.84 96.7523 137.03 96.9823 137.17C97.2223 137.3 97.6273 137.425 98.1973 137.545C98.7273 137.655 99.1873 137.795 99.5773 137.965C99.9773 138.125 100.292 138.35 100.522 138.64C100.752 138.92 100.867 139.3 100.867 139.78C100.867 140.25 100.732 140.665 100.462 141.025C100.202 141.375 99.8373 141.65 99.3673 141.85C98.8973 142.04 98.3623 142.135 97.7623 142.135ZM105.83 142V130.9H107.66L107.675 134.425L107.57 136.315C107.87 135.675 108.265 135.18 108.755 134.83C109.255 134.48 109.825 134.305 110.465 134.305C111.315 134.305 111.955 134.6 112.385 135.19C112.825 135.77 113.04 136.605 113.03 137.695L113 142H111.17L111.2 137.845C111.21 137.255 111.115 136.805 110.915 136.495C110.725 136.175 110.415 136.015 109.985 136.015C109.655 136.015 109.35 136.11 109.07 136.3C108.79 136.49 108.545 136.815 108.335 137.275C108.125 137.725 107.96 138.34 107.84 139.12C107.72 139.89 107.655 140.85 107.645 142H105.83ZM121.948 134.455V142H120.088L120.148 140.68C119.878 141.14 119.523 141.5 119.083 141.76C118.653 142.01 118.158 142.135 117.598 142.135C116.938 142.135 116.378 141.985 115.918 141.685C115.458 141.375 115.108 140.95 114.868 140.41C114.628 139.87 114.508 139.25 114.508 138.55C114.508 137.71 114.673 136.975 115.003 136.345C115.333 135.705 115.783 135.205 116.353 134.845C116.933 134.485 117.583 134.305 118.303 134.305C118.783 134.305 119.208 134.41 119.578 134.62C119.948 134.82 120.233 135.09 120.433 135.43L120.613 134.455H121.948ZM118.438 135.925C117.818 135.925 117.323 136.16 116.953 136.63C116.583 137.1 116.398 137.715 116.398 138.475C116.398 139.125 116.538 139.63 116.818 139.99C117.098 140.35 117.483 140.53 117.973 140.53C118.373 140.53 118.733 140.415 119.053 140.185C119.383 139.955 119.643 139.635 119.833 139.225C120.023 138.815 120.118 138.345 120.118 137.815C120.118 137.225 119.968 136.765 119.668 136.435C119.368 136.095 118.958 135.925 118.438 135.925ZM129.127 134.425H130.957L128.122 142H125.512L123.112 134.425H125.092L126.922 140.515L129.127 134.425ZM135.153 142.135C134.333 142.135 133.623 141.985 133.023 141.685C132.433 141.375 131.978 140.935 131.658 140.365C131.338 139.795 131.178 139.115 131.178 138.325C131.178 137.535 131.343 136.84 131.673 136.24C132.003 135.63 132.448 135.155 133.008 134.815C133.578 134.475 134.223 134.305 134.943 134.305C136.113 134.305 136.973 134.705 137.523 135.505C138.083 136.295 138.278 137.39 138.108 138.79H133.038C133.078 139.32 133.293 139.745 133.683 140.065C134.073 140.385 134.608 140.545 135.288 140.545C135.608 140.545 135.928 140.475 136.248 140.335C136.578 140.195 136.858 139.98 137.088 139.69L138.153 140.77C137.813 141.2 137.398 141.535 136.908 141.775C136.428 142.015 135.843 142.135 135.153 142.135ZM134.973 135.685C134.463 135.685 134.043 135.845 133.713 136.165C133.383 136.485 133.173 136.915 133.083 137.455H136.533C136.553 136.835 136.418 136.385 136.128 136.105C135.838 135.825 135.453 135.685 134.973 135.685ZM143.33 142V130.9H145.16V134.425L145.1 135.805C145.37 135.325 145.72 134.955 146.15 134.695C146.59 134.435 147.095 134.305 147.665 134.305C148.335 134.305 148.9 134.46 149.36 134.77C149.82 135.08 150.17 135.505 150.41 136.045C150.65 136.585 150.77 137.2 150.77 137.89C150.77 138.73 150.605 139.47 150.275 140.11C149.945 140.75 149.49 141.25 148.91 141.61C148.34 141.96 147.695 142.135 146.975 142.135C146.485 142.135 146.055 142.035 145.685 141.835C145.315 141.625 145.035 141.35 144.845 141.01L144.665 142H143.33ZM146.825 140.53C147.455 140.53 147.955 140.29 148.325 139.81C148.695 139.33 148.88 138.71 148.88 137.95C148.88 137.31 148.74 136.815 148.46 136.465C148.18 136.105 147.795 135.925 147.305 135.925C146.895 135.925 146.53 136.04 146.21 136.27C145.89 136.49 145.635 136.805 145.445 137.215C145.255 137.615 145.16 138.08 145.16 138.61C145.16 139.2 145.31 139.67 145.61 140.02C145.91 140.36 146.315 140.53 146.825 140.53ZM155.968 142.135C155.148 142.135 154.438 141.985 153.838 141.685C153.248 141.375 152.793 140.935 152.473 140.365C152.153 139.795 151.993 139.115 151.993 138.325C151.993 137.535 152.158 136.84 152.488 136.24C152.818 135.63 153.263 135.155 153.823 134.815C154.393 134.475 155.038 134.305 155.758 134.305C156.928 134.305 157.788 134.705 158.338 135.505C158.898 136.295 159.093 137.39 158.923 138.79H153.853C153.893 139.32 154.108 139.745 154.498 140.065C154.888 140.385 155.423 140.545 156.103 140.545C156.423 140.545 156.743 140.475 157.063 140.335C157.393 140.195 157.673 139.98 157.903 139.69L158.968 140.77C158.628 141.2 158.213 141.535 157.723 141.775C157.243 142.015 156.658 142.135 155.968 142.135ZM155.788 135.685C155.278 135.685 154.858 135.845 154.528 136.165C154.198 136.485 153.988 136.915 153.898 137.455H157.348C157.368 136.835 157.233 136.385 156.943 136.105C156.653 135.825 156.268 135.685 155.788 135.685ZM164.113 142.135C163.293 142.135 162.583 141.985 161.983 141.685C161.393 141.375 160.938 140.935 160.618 140.365C160.298 139.795 160.138 139.115 160.138 138.325C160.138 137.535 160.303 136.84 160.633 136.24C160.963 135.63 161.408 135.155 161.968 134.815C162.538 134.475 163.183 134.305 163.903 134.305C165.073 134.305 165.933 134.705 166.483 135.505C167.043 136.295 167.238 137.39 167.068 138.79H161.998C162.038 139.32 162.253 139.745 162.643 140.065C163.033 140.385 163.568 140.545 164.248 140.545C164.568 140.545 164.888 140.475 165.208 140.335C165.538 140.195 165.818 139.98 166.048 139.69L167.113 140.77C166.773 141.2 166.358 141.535 165.868 141.775C165.388 142.015 164.803 142.135 164.113 142.135ZM163.933 135.685C163.423 135.685 163.003 135.845 162.673 136.165C162.343 136.485 162.133 136.915 162.043 137.455H165.493C165.513 136.835 165.378 136.385 165.088 136.105C164.798 135.825 164.413 135.685 163.933 135.685ZM168.642 142V134.425H170.472L170.382 136.33C170.672 135.68 171.067 135.18 171.567 134.83C172.067 134.48 172.637 134.305 173.277 134.305C174.127 134.305 174.767 134.6 175.197 135.19C175.637 135.77 175.852 136.605 175.842 137.695L175.812 142H173.982L174.012 137.845C174.022 137.255 173.927 136.805 173.727 136.495C173.537 136.175 173.227 136.015 172.797 136.015C172.467 136.015 172.162 136.11 171.882 136.3C171.602 136.49 171.357 136.815 171.147 137.275C170.937 137.725 170.772 138.34 170.652 139.12C170.532 139.89 170.467 140.85 170.457 142H168.642ZM186.188 136.195C185.988 136.125 185.733 136.09 185.423 136.09C184.883 136.09 184.448 136.29 184.118 136.69C183.788 137.08 183.543 137.71 183.383 138.58C183.233 139.44 183.158 140.58 183.158 142H181.343V137.11L181.328 134.425H183.158L183.068 136.54C183.328 135.73 183.688 135.155 184.148 134.815C184.618 134.475 185.118 134.305 185.648 134.305C185.808 134.305 185.958 134.315 186.098 134.335C186.238 134.355 186.368 134.385 186.488 134.425L186.188 136.195ZM190.715 142.135C189.895 142.135 189.185 141.985 188.585 141.685C187.995 141.375 187.54 140.935 187.22 140.365C186.9 139.795 186.74 139.115 186.74 138.325C186.74 137.535 186.905 136.84 187.235 136.24C187.565 135.63 188.01 135.155 188.57 134.815C189.14 134.475 189.785 134.305 190.505 134.305C191.675 134.305 192.535 134.705 193.085 135.505C193.645 136.295 193.84 137.39 193.67 138.79H188.6C188.64 139.32 188.855 139.745 189.245 140.065C189.635 140.385 190.17 140.545 190.85 140.545C191.17 140.545 191.49 140.475 191.81 140.335C192.14 140.195 192.42 139.98 192.65 139.69L193.715 140.77C193.375 141.2 192.96 141.535 192.47 141.775C191.99 142.015 191.405 142.135 190.715 142.135ZM190.535 135.685C190.025 135.685 189.605 135.845 189.275 136.165C188.945 136.485 188.735 136.915 188.645 137.455H192.095C192.115 136.835 191.98 136.385 191.69 136.105C191.4 135.825 191.015 135.685 190.535 135.685ZM195.619 142V135.955H194.179V134.425H195.619V134.095C195.619 133.405 195.754 132.81 196.024 132.31C196.294 131.81 196.664 131.425 197.134 131.155C197.614 130.885 198.159 130.75 198.769 130.75C199.449 130.75 199.969 130.895 200.329 131.185L199.564 132.505C199.334 132.365 199.069 132.295 198.769 132.295C198.359 132.295 198.034 132.43 197.794 132.7C197.554 132.97 197.434 133.375 197.434 133.915V134.425H199.684V135.955H197.464V142H195.619ZM202.339 134.425V142H200.509V134.425H202.339ZM201.424 133.225C201.064 133.225 200.779 133.115 200.569 132.895C200.359 132.675 200.254 132.41 200.254 132.1C200.254 131.79 200.359 131.525 200.569 131.305C200.779 131.085 201.064 130.975 201.424 130.975C201.784 130.975 202.069 131.085 202.279 131.305C202.489 131.525 202.594 131.79 202.594 132.1C202.594 132.41 202.489 132.675 202.279 132.895C202.069 133.115 201.784 133.225 201.424 133.225ZM204.267 142V134.425H206.097L206.007 136.33C206.297 135.68 206.692 135.18 207.192 134.83C207.692 134.48 208.262 134.305 208.902 134.305C209.752 134.305 210.392 134.6 210.822 135.19C211.262 135.77 211.477 136.605 211.467 137.695L211.437 142H209.607L209.637 137.845C209.647 137.255 209.552 136.805 209.352 136.495C209.162 136.175 208.852 136.015 208.422 136.015C208.092 136.015 207.787 136.11 207.507 136.3C207.227 136.49 206.982 136.815 206.772 137.275C206.562 137.725 206.397 138.34 206.277 139.12C206.157 139.89 206.092 140.85 206.082 142H204.267ZM216.921 142.135C216.101 142.135 215.391 141.985 214.791 141.685C214.201 141.375 213.746 140.935 213.426 140.365C213.106 139.795 212.946 139.115 212.946 138.325C212.946 137.535 213.111 136.84 213.441 136.24C213.771 135.63 214.216 135.155 214.776 134.815C215.346 134.475 215.991 134.305 216.711 134.305C217.881 134.305 218.741 134.705 219.291 135.505C219.851 136.295 220.046 137.39 219.876 138.79H214.806C214.846 139.32 215.061 139.745 215.451 140.065C215.841 140.385 216.376 140.545 217.056 140.545C217.376 140.545 217.696 140.475 218.016 140.335C218.346 140.195 218.626 139.98 218.856 139.69L219.921 140.77C219.581 141.2 219.166 141.535 218.676 141.775C218.196 142.015 217.611 142.135 216.921 142.135ZM216.741 135.685C216.231 135.685 215.811 135.845 215.481 136.165C215.151 136.485 214.941 136.915 214.851 137.455H218.301C218.321 136.835 218.186 136.385 217.896 136.105C217.606 135.825 217.221 135.685 216.741 135.685ZM228.53 130.9V142H226.67L226.73 140.68C226.46 141.15 226.11 141.51 225.68 141.76C225.25 142.01 224.75 142.135 224.18 142.135C223.52 142.135 222.96 141.985 222.5 141.685C222.04 141.375 221.69 140.95 221.45 140.41C221.21 139.87 221.09 139.25 221.09 138.55C221.09 137.71 221.255 136.975 221.585 136.345C221.915 135.705 222.365 135.205 222.935 134.845C223.515 134.485 224.165 134.305 224.885 134.305C225.265 134.305 225.61 134.37 225.92 134.5C226.24 134.63 226.505 134.81 226.715 135.04L226.7 134.425V130.9H228.53ZM225.02 135.925C224.4 135.925 223.905 136.16 223.535 136.63C223.165 137.1 222.98 137.715 222.98 138.475C222.98 139.125 223.12 139.63 223.4 139.99C223.68 140.35 224.065 140.53 224.555 140.53C224.955 140.53 225.315 140.415 225.635 140.185C225.965 139.955 226.225 139.635 226.415 139.225C226.605 138.815 226.7 138.345 226.7 137.815C226.7 137.225 226.55 136.765 226.25 136.435C225.95 136.095 225.54 135.925 225.02 135.925ZM237.676 134.305C238.806 134.305 239.691 134.645 240.331 135.325C240.981 135.995 241.306 136.905 241.306 138.055C241.306 138.835 241.141 139.535 240.811 140.155C240.491 140.765 240.036 141.25 239.446 141.61C238.856 141.96 238.171 142.135 237.391 142.135C236.261 142.135 235.371 141.8 234.721 141.13C234.081 140.46 233.761 139.545 233.761 138.385C233.761 137.605 233.921 136.91 234.241 136.3C234.571 135.68 235.026 135.195 235.606 134.845C236.196 134.485 236.886 134.305 237.676 134.305ZM237.451 140.53C238.041 140.53 238.516 140.305 238.876 139.855C239.236 139.405 239.416 138.805 239.416 138.055C239.416 137.375 239.256 136.85 238.936 136.48C238.626 136.11 238.196 135.925 237.646 135.925C237.036 135.925 236.551 136.15 236.191 136.6C235.831 137.05 235.651 137.645 235.651 138.385C235.651 139.065 235.806 139.595 236.116 139.975C236.436 140.345 236.881 140.53 237.451 140.53ZM247.881 134.425H249.711L246.876 142H244.266L241.866 134.425H243.846L245.676 140.515L247.881 134.425ZM253.908 142.135C253.088 142.135 252.378 141.985 251.778 141.685C251.188 141.375 250.733 140.935 250.413 140.365C250.093 139.795 249.933 139.115 249.933 138.325C249.933 137.535 250.098 136.84 250.428 136.24C250.758 135.63 251.203 135.155 251.763 134.815C252.333 134.475 252.978 134.305 253.698 134.305C254.868 134.305 255.728 134.705 256.278 135.505C256.838 136.295 257.033 137.39 256.863 138.79H251.793C251.833 139.32 252.048 139.745 252.438 140.065C252.828 140.385 253.363 140.545 254.043 140.545C254.363 140.545 254.683 140.475 255.003 140.335C255.333 140.195 255.613 139.98 255.843 139.69L256.908 140.77C256.568 141.2 256.153 141.535 255.663 141.775C255.183 142.015 254.598 142.135 253.908 142.135ZM253.728 135.685C253.218 135.685 252.798 135.845 252.468 136.165C252.138 136.485 251.928 136.915 251.838 137.455H255.288C255.308 136.835 255.173 136.385 254.883 136.105C254.593 135.825 254.208 135.685 253.728 135.685ZM263.297 136.195C263.097 136.125 262.842 136.09 262.532 136.09C261.992 136.09 261.557 136.29 261.227 136.69C260.897 137.08 260.652 137.71 260.492 138.58C260.342 139.44 260.267 140.58 260.267 142H258.452V137.11L258.437 134.425H260.267L260.177 136.54C260.437 135.73 260.797 135.155 261.257 134.815C261.727 134.475 262.227 134.305 262.757 134.305C262.917 134.305 263.067 134.315 263.207 134.335C263.347 134.355 263.477 134.385 263.597 134.425L263.297 136.195ZM270.863 145.15C270.413 145.15 269.933 145.105 269.423 145.015C268.923 144.925 268.508 144.775 268.178 144.565L268.628 142.975C268.968 143.145 269.328 143.28 269.708 143.38C270.088 143.48 270.503 143.53 270.953 143.53C271.833 143.53 272.458 143.32 272.828 142.9C273.198 142.49 273.403 141.83 273.443 140.92L273.503 139.93C273.203 140.57 272.803 141.06 272.303 141.4C271.813 141.73 271.263 141.895 270.653 141.895C269.803 141.895 269.163 141.61 268.733 141.04C268.303 140.47 268.093 139.68 268.103 138.67L268.133 134.425H269.963L269.933 138.52C269.933 139.04 270.023 139.45 270.203 139.75C270.393 140.04 270.698 140.185 271.118 140.185C271.578 140.185 271.978 140.01 272.318 139.66C272.658 139.3 272.923 138.705 273.113 137.875C273.313 137.035 273.418 135.885 273.428 134.425H275.198V140.695C275.198 142.215 274.818 143.335 274.058 144.055C273.298 144.785 272.233 145.15 270.863 145.15ZM280.758 142.135C279.938 142.135 279.228 141.985 278.628 141.685C278.038 141.375 277.583 140.935 277.263 140.365C276.943 139.795 276.783 139.115 276.783 138.325C276.783 137.535 276.948 136.84 277.278 136.24C277.608 135.63 278.053 135.155 278.613 134.815C279.183 134.475 279.828 134.305 280.548 134.305C281.718 134.305 282.578 134.705 283.128 135.505C283.688 136.295 283.883 137.39 283.713 138.79H278.643C278.683 139.32 278.898 139.745 279.288 140.065C279.678 140.385 280.213 140.545 280.893 140.545C281.213 140.545 281.533 140.475 281.853 140.335C282.183 140.195 282.463 139.98 282.693 139.69L283.758 140.77C283.418 141.2 283.003 141.535 282.513 141.775C282.033 142.015 281.448 142.135 280.758 142.135ZM280.578 135.685C280.068 135.685 279.648 135.845 279.318 136.165C278.988 136.485 278.778 136.915 278.688 137.455H282.138C282.158 136.835 282.023 136.385 281.733 136.105C281.443 135.825 281.058 135.685 280.578 135.685ZM292.368 134.455V142H290.508L290.568 140.68C290.298 141.14 289.943 141.5 289.503 141.76C289.073 142.01 288.578 142.135 288.018 142.135C287.358 142.135 286.798 141.985 286.338 141.685C285.878 141.375 285.528 140.95 285.288 140.41C285.048 139.87 284.928 139.25 284.928 138.55C284.928 137.71 285.093 136.975 285.423 136.345C285.753 135.705 286.203 135.205 286.773 134.845C287.353 134.485 288.003 134.305 288.723 134.305C289.203 134.305 289.628 134.41 289.998 134.62C290.368 134.82 290.653 135.09 290.853 135.43L291.033 134.455H292.368ZM288.858 135.925C288.238 135.925 287.743 136.16 287.373 136.63C287.003 137.1 286.818 137.715 286.818 138.475C286.818 139.125 286.958 139.63 287.238 139.99C287.518 140.35 287.903 140.53 288.393 140.53C288.793 140.53 289.153 140.415 289.473 140.185C289.803 139.955 290.063 139.635 290.253 139.225C290.443 138.815 290.538 138.345 290.538 137.815C290.538 137.225 290.388 136.765 290.088 136.435C289.788 136.095 289.378 135.925 288.858 135.925ZM299.171 136.195C298.971 136.125 298.716 136.09 298.406 136.09C297.866 136.09 297.431 136.29 297.101 136.69C296.771 137.08 296.526 137.71 296.366 138.58C296.216 139.44 296.141 140.58 296.141 142H294.326V137.11L294.311 134.425H296.141L296.051 136.54C296.311 135.73 296.671 135.155 297.131 134.815C297.601 134.475 298.101 134.305 298.631 134.305C298.791 134.305 298.941 134.315 299.081 134.335C299.221 134.355 299.351 134.385 299.471 134.425L299.171 136.195ZM302.972 142.135C301.932 142.135 301.137 141.94 300.587 141.55C300.037 141.15 299.717 140.595 299.627 139.885L301.172 139.51C301.232 139.89 301.407 140.185 301.697 140.395C301.987 140.595 302.402 140.695 302.942 140.695C303.382 140.695 303.712 140.625 303.932 140.485C304.162 140.345 304.277 140.155 304.277 139.915C304.277 139.675 304.152 139.49 303.902 139.36C303.662 139.23 303.287 139.115 302.777 139.015C302.207 138.905 301.717 138.765 301.307 138.595C300.907 138.425 300.597 138.195 300.377 137.905C300.167 137.605 300.062 137.215 300.062 136.735C300.062 136.275 300.192 135.865 300.452 135.505C300.712 135.135 301.067 134.845 301.517 134.635C301.977 134.415 302.502 134.305 303.092 134.305C303.882 134.305 304.527 134.49 305.027 134.86C305.537 135.23 305.842 135.705 305.942 136.285L304.427 136.69C304.357 136.4 304.207 136.175 303.977 136.015C303.747 135.845 303.437 135.76 303.047 135.76C302.657 135.76 302.357 135.84 302.147 136C301.947 136.16 301.847 136.36 301.847 136.6C301.847 136.84 301.962 137.03 302.192 137.17C302.432 137.3 302.837 137.425 303.407 137.545C303.937 137.655 304.397 137.795 304.787 137.965C305.187 138.125 305.502 138.35 305.732 138.64C305.962 138.92 306.077 139.3 306.077 139.78C306.077 140.25 305.942 140.665 305.672 141.025C305.412 141.375 305.047 141.65 304.577 141.85C304.107 142.04 303.572 142.135 302.972 142.135ZM314.595 134.305C315.725 134.305 316.61 134.645 317.25 135.325C317.9 135.995 318.225 136.905 318.225 138.055C318.225 138.835 318.06 139.535 317.73 140.155C317.41 140.765 316.955 141.25 316.365 141.61C315.775 141.96 315.09 142.135 314.31 142.135C313.18 142.135 312.29 141.8 311.64 141.13C311 140.46 310.68 139.545 310.68 138.385C310.68 137.605 310.84 136.91 311.16 136.3C311.49 135.68 311.945 135.195 312.525 134.845C313.115 134.485 313.805 134.305 314.595 134.305ZM314.37 140.53C314.96 140.53 315.435 140.305 315.795 139.855C316.155 139.405 316.335 138.805 316.335 138.055C316.335 137.375 316.175 136.85 315.855 136.48C315.545 136.11 315.115 135.925 314.565 135.925C313.955 135.925 313.47 136.15 313.11 136.6C312.75 137.05 312.57 137.645 312.57 138.385C312.57 139.065 312.725 139.595 313.035 139.975C313.355 140.345 313.8 140.53 314.37 140.53ZM320.189 142V135.955H318.749V134.425H320.189V134.02C320.189 133.35 320.324 132.775 320.594 132.295C320.874 131.805 321.249 131.425 321.719 131.155C322.199 130.885 322.749 130.75 323.369 130.75C324.109 130.75 324.699 130.935 325.139 131.305C325.589 131.665 325.859 132.21 325.949 132.94L324.389 133.12C324.359 132.86 324.249 132.66 324.059 132.52C323.869 132.37 323.624 132.295 323.324 132.295C322.914 132.295 322.589 132.43 322.349 132.7C322.119 132.97 322.004 133.355 322.004 133.855V134.425H324.254V135.955H322.034V142H320.189ZM11.6102 159.425V167H9.78018V159.425H11.6102ZM10.6952 158.225C10.3352 158.225 10.0502 158.115 9.84018 157.895C9.63018 157.675 9.52518 157.41 9.52518 157.1C9.52518 156.79 9.63018 156.525 9.84018 156.305C10.0502 156.085 10.3352 155.975 10.6952 155.975C11.0552 155.975 11.3402 156.085 11.5502 156.305C11.7602 156.525 11.8652 156.79 11.8652 157.1C11.8652 157.41 11.7602 157.675 11.5502 157.895C11.3402 158.115 11.0552 158.225 10.6952 158.225ZM13.5595 167V159.425H15.3895L15.2995 161.285C15.6095 160.595 16.0095 160.095 16.4995 159.785C16.9995 159.465 17.5345 159.305 18.1045 159.305C18.6545 159.305 19.1395 159.455 19.5595 159.755C19.9795 160.055 20.2795 160.525 20.4595 161.165C20.7795 160.535 21.1995 160.07 21.7195 159.77C22.2495 159.46 22.7945 159.305 23.3545 159.305C24.1945 159.305 24.8295 159.6 25.2595 160.19C25.6995 160.77 25.9145 161.605 25.9045 162.695L25.8745 167H24.0445L24.0745 162.755C24.0745 162.205 23.9745 161.78 23.7745 161.48C23.5745 161.17 23.2645 161.015 22.8445 161.015C22.5545 161.015 22.2745 161.11 22.0045 161.3C21.7445 161.48 21.5095 161.795 21.2995 162.245C21.0995 162.695 20.9395 163.31 20.8195 164.09C20.6995 164.86 20.6345 165.83 20.6245 167H18.8095V162.755C18.8095 162.205 18.7145 161.78 18.5245 161.48C18.3345 161.17 18.0295 161.015 17.6095 161.015C17.3195 161.015 17.0395 161.11 16.7695 161.3C16.5095 161.48 16.2745 161.795 16.0645 162.245C15.8645 162.695 15.6995 163.31 15.5695 164.09C15.4495 164.86 15.3845 165.83 15.3745 167H13.5595ZM27.7538 170V159.425H29.5988L29.5388 160.775C29.8088 160.305 30.1588 159.945 30.5888 159.695C31.0188 159.435 31.5188 159.305 32.0888 159.305C32.7588 159.305 33.3238 159.46 33.7838 159.77C34.2438 160.08 34.5938 160.505 34.8338 161.045C35.0738 161.585 35.1938 162.2 35.1938 162.89C35.1938 163.73 35.0288 164.47 34.6988 165.11C34.3688 165.75 33.9138 166.25 33.3338 166.61C32.7638 166.96 32.1138 167.135 31.3838 167.135C31.0038 167.135 30.6588 167.07 30.3488 166.94C30.0388 166.81 29.7788 166.635 29.5688 166.415L29.5838 167V170H27.7538ZM31.2488 165.53C31.8788 165.53 32.3788 165.29 32.7488 164.81C33.1188 164.33 33.3038 163.71 33.3038 162.95C33.3038 162.31 33.1638 161.815 32.8838 161.465C32.6038 161.105 32.2188 160.925 31.7288 160.925C31.3188 160.925 30.9538 161.04 30.6338 161.27C30.3138 161.49 30.0588 161.805 29.8688 162.215C29.6788 162.615 29.5838 163.08 29.5838 163.61C29.5838 164.2 29.7338 164.67 30.0338 165.02C30.3338 165.36 30.7388 165.53 31.2488 165.53ZM38.9672 167.135C38.2472 167.135 37.7022 166.94 37.3322 166.55C36.9622 166.16 36.7772 165.605 36.7772 164.885V155.9H38.6072V164.735C38.6072 165.275 38.8572 165.545 39.3572 165.545C39.6072 165.545 39.8272 165.485 40.0172 165.365L40.4672 166.7C40.3072 166.82 40.0922 166.92 39.8222 167C39.5522 167.09 39.2672 167.135 38.9672 167.135ZM44.6989 167.135C43.8789 167.135 43.1689 166.985 42.5689 166.685C41.9789 166.375 41.5239 165.935 41.2039 165.365C40.8839 164.795 40.7239 164.115 40.7239 163.325C40.7239 162.535 40.8889 161.84 41.2189 161.24C41.5489 160.63 41.9939 160.155 42.5539 159.815C43.1239 159.475 43.7689 159.305 44.4889 159.305C45.6589 159.305 46.5189 159.705 47.0689 160.505C47.6289 161.295 47.8239 162.39 47.6539 163.79H42.5839C42.6239 164.32 42.8389 164.745 43.2289 165.065C43.6189 165.385 44.1539 165.545 44.8339 165.545C45.1539 165.545 45.4739 165.475 45.7939 165.335C46.1239 165.195 46.4039 164.98 46.6339 164.69L47.6989 165.77C47.3589 166.2 46.9439 166.535 46.4539 166.775C45.9739 167.015 45.3889 167.135 44.6989 167.135ZM44.5189 160.685C44.0089 160.685 43.5889 160.845 43.2589 161.165C42.9289 161.485 42.7189 161.915 42.6289 162.455H46.0789C46.0989 161.835 45.9639 161.385 45.6739 161.105C45.3839 160.825 44.9989 160.685 44.5189 160.685ZM49.2284 167V159.425H51.0584L50.9684 161.285C51.2784 160.595 51.6784 160.095 52.1684 159.785C52.6684 159.465 53.2034 159.305 53.7734 159.305C54.3234 159.305 54.8084 159.455 55.2284 159.755C55.6484 160.055 55.9484 160.525 56.1284 161.165C56.4484 160.535 56.8684 160.07 57.3884 159.77C57.9184 159.46 58.4634 159.305 59.0234 159.305C59.8634 159.305 60.4984 159.6 60.9284 160.19C61.3684 160.77 61.5834 161.605 61.5734 162.695L61.5434 167H59.7134L59.7434 162.755C59.7434 162.205 59.6434 161.78 59.4434 161.48C59.2434 161.17 58.9334 161.015 58.5134 161.015C58.2234 161.015 57.9434 161.11 57.6734 161.3C57.4134 161.48 57.1784 161.795 56.9684 162.245C56.7684 162.695 56.6084 163.31 56.4884 164.09C56.3684 164.86 56.3034 165.83 56.2934 167H54.4784V162.755C54.4784 162.205 54.3834 161.78 54.1934 161.48C54.0034 161.17 53.6984 161.015 53.2784 161.015C52.9884 161.015 52.7084 161.11 52.4384 161.3C52.1784 161.48 51.9434 161.795 51.7334 162.245C51.5334 162.695 51.3684 163.31 51.2384 164.09C51.1184 164.86 51.0534 165.83 51.0434 167H49.2284ZM67.0378 167.135C66.2178 167.135 65.5078 166.985 64.9078 166.685C64.3178 166.375 63.8628 165.935 63.5428 165.365C63.2228 164.795 63.0628 164.115 63.0628 163.325C63.0628 162.535 63.2278 161.84 63.5578 161.24C63.8878 160.63 64.3328 160.155 64.8928 159.815C65.4628 159.475 66.1078 159.305 66.8278 159.305C67.9978 159.305 68.8578 159.705 69.4078 160.505C69.9678 161.295 70.1628 162.39 69.9928 163.79H64.9228C64.9628 164.32 65.1778 164.745 65.5678 165.065C65.9578 165.385 66.4928 165.545 67.1728 165.545C67.4928 165.545 67.8128 165.475 68.1328 165.335C68.4628 165.195 68.7428 164.98 68.9728 164.69L70.0378 165.77C69.6978 166.2 69.2828 166.535 68.7928 166.775C68.3128 167.015 67.7278 167.135 67.0378 167.135ZM66.8578 160.685C66.3478 160.685 65.9278 160.845 65.5978 161.165C65.2678 161.485 65.0578 161.915 64.9678 162.455H68.4178C68.4378 161.835 68.3028 161.385 68.0128 161.105C67.7228 160.825 67.3378 160.685 66.8578 160.685ZM71.5673 167V159.425H73.3973L73.3073 161.33C73.5973 160.68 73.9923 160.18 74.4923 159.83C74.9923 159.48 75.5623 159.305 76.2023 159.305C77.0523 159.305 77.6923 159.6 78.1223 160.19C78.5623 160.77 78.7773 161.605 78.7673 162.695L78.7373 167H76.9073L76.9373 162.845C76.9473 162.255 76.8523 161.805 76.6523 161.495C76.4623 161.175 76.1523 161.015 75.7223 161.015C75.3923 161.015 75.0873 161.11 74.8073 161.3C74.5273 161.49 74.2823 161.815 74.0723 162.275C73.8623 162.725 73.6973 163.34 73.5773 164.12C73.4573 164.89 73.3923 165.85 73.3823 167H71.5673ZM83.8154 167.135C82.9054 167.135 82.1954 166.885 81.6854 166.385C81.1854 165.885 80.9404 165.23 80.9504 164.42L81.0104 160.955H79.7204V159.425H81.0404L81.0554 157.865H82.8854L82.8554 159.425H85.3304V160.955H82.8404L82.7954 164.225C82.7854 164.635 82.8854 164.96 83.0954 165.2C83.3154 165.43 83.6404 165.545 84.0704 165.545C84.3004 165.545 84.5154 165.515 84.7154 165.455C84.9154 165.395 85.1254 165.285 85.3454 165.125L85.8854 166.535C85.6554 166.735 85.3604 166.885 85.0004 166.985C84.6404 167.085 84.2454 167.135 83.8154 167.135ZM93.618 159.455V167H91.758L91.818 165.68C91.548 166.14 91.193 166.5 90.753 166.76C90.323 167.01 89.828 167.135 89.268 167.135C88.608 167.135 88.048 166.985 87.588 166.685C87.128 166.375 86.778 165.95 86.538 165.41C86.298 164.87 86.178 164.25 86.178 163.55C86.178 162.71 86.343 161.975 86.673 161.345C87.003 160.705 87.453 160.205 88.023 159.845C88.603 159.485 89.253 159.305 89.973 159.305C90.453 159.305 90.878 159.41 91.248 159.62C91.618 159.82 91.903 160.09 92.103 160.43L92.283 159.455H93.618ZM90.108 160.925C89.488 160.925 88.993 161.16 88.623 161.63C88.253 162.1 88.068 162.715 88.068 163.475C88.068 164.125 88.208 164.63 88.488 164.99C88.768 165.35 89.153 165.53 89.643 165.53C90.043 165.53 90.403 165.415 90.723 165.185C91.053 164.955 91.313 164.635 91.503 164.225C91.693 163.815 91.788 163.345 91.788 162.815C91.788 162.225 91.638 161.765 91.338 161.435C91.038 161.095 90.628 160.925 90.108 160.925ZM98.7714 167.135C97.8614 167.135 97.1514 166.885 96.6414 166.385C96.1414 165.885 95.8964 165.23 95.9064 164.42L95.9664 160.955H94.6764V159.425H95.9964L96.0114 157.865H97.8414L97.8114 159.425H100.286V160.955H97.7964L97.7514 164.225C97.7414 164.635 97.8414 164.96 98.0514 165.2C98.2714 165.43 98.5964 165.545 99.0264 165.545C99.2564 165.545 99.4714 165.515 99.6714 165.455C99.8714 165.395 100.081 165.285 100.301 165.125L100.841 166.535C100.611 166.735 100.316 166.885 99.9564 166.985C99.5964 167.085 99.2014 167.135 98.7714 167.135ZM103.471 159.425V167H101.641V159.425H103.471ZM102.556 158.225C102.196 158.225 101.911 158.115 101.701 157.895C101.491 157.675 101.386 157.41 101.386 157.1C101.386 156.79 101.491 156.525 101.701 156.305C101.911 156.085 102.196 155.975 102.556 155.975C102.916 155.975 103.201 156.085 103.411 156.305C103.621 156.525 103.726 156.79 103.726 157.1C103.726 157.41 103.621 157.675 103.411 157.895C103.201 158.115 102.916 158.225 102.556 158.225ZM108.975 159.305C110.105 159.305 110.99 159.645 111.63 160.325C112.28 160.995 112.605 161.905 112.605 163.055C112.605 163.835 112.44 164.535 112.11 165.155C111.79 165.765 111.335 166.25 110.745 166.61C110.155 166.96 109.47 167.135 108.69 167.135C107.56 167.135 106.67 166.8 106.02 166.13C105.38 165.46 105.06 164.545 105.06 163.385C105.06 162.605 105.22 161.91 105.54 161.3C105.87 160.68 106.325 160.195 106.905 159.845C107.495 159.485 108.185 159.305 108.975 159.305ZM108.75 165.53C109.34 165.53 109.815 165.305 110.175 164.855C110.535 164.405 110.715 163.805 110.715 163.055C110.715 162.375 110.555 161.85 110.235 161.48C109.925 161.11 109.495 160.925 108.945 160.925C108.335 160.925 107.85 161.15 107.49 161.6C107.13 162.05 106.95 162.645 106.95 163.385C106.95 164.065 107.105 164.595 107.415 164.975C107.735 165.345 108.18 165.53 108.75 165.53ZM114.194 167V159.425H116.024L115.934 161.33C116.224 160.68 116.619 160.18 117.119 159.83C117.619 159.48 118.189 159.305 118.829 159.305C119.679 159.305 120.319 159.6 120.749 160.19C121.189 160.77 121.404 161.605 121.394 162.695L121.364 167H119.534L119.564 162.845C119.574 162.255 119.479 161.805 119.279 161.495C119.089 161.175 118.779 161.015 118.349 161.015C118.019 161.015 117.714 161.11 117.434 161.3C117.154 161.49 116.909 161.815 116.699 162.275C116.489 162.725 116.324 163.34 116.204 164.12C116.084 164.89 116.019 165.85 116.009 167H114.194ZM126.88 167V159.425H128.71L128.62 161.285C128.93 160.595 129.33 160.095 129.82 159.785C130.32 159.465 130.855 159.305 131.425 159.305C131.975 159.305 132.46 159.455 132.88 159.755C133.3 160.055 133.6 160.525 133.78 161.165C134.1 160.535 134.52 160.07 135.04 159.77C135.57 159.46 136.115 159.305 136.675 159.305C137.515 159.305 138.15 159.6 138.58 160.19C139.02 160.77 139.235 161.605 139.225 162.695L139.195 167H137.365L137.395 162.755C137.395 162.205 137.295 161.78 137.095 161.48C136.895 161.17 136.585 161.015 136.165 161.015C135.875 161.015 135.595 161.11 135.325 161.3C135.065 161.48 134.83 161.795 134.62 162.245C134.42 162.695 134.26 163.31 134.14 164.09C134.02 164.86 133.955 165.83 133.945 167H132.13V162.755C132.13 162.205 132.035 161.78 131.845 161.48C131.655 161.17 131.35 161.015 130.93 161.015C130.64 161.015 130.36 161.11 130.09 161.3C129.83 161.48 129.595 161.795 129.385 162.245C129.185 162.695 129.02 163.31 128.89 164.09C128.77 164.86 128.705 165.83 128.695 167H126.88ZM144.689 167.135C143.869 167.135 143.159 166.985 142.559 166.685C141.969 166.375 141.514 165.935 141.194 165.365C140.874 164.795 140.714 164.115 140.714 163.325C140.714 162.535 140.879 161.84 141.209 161.24C141.539 160.63 141.984 160.155 142.544 159.815C143.114 159.475 143.759 159.305 144.479 159.305C145.649 159.305 146.509 159.705 147.059 160.505C147.619 161.295 147.814 162.39 147.644 163.79H142.574C142.614 164.32 142.829 164.745 143.219 165.065C143.609 165.385 144.144 165.545 144.824 165.545C145.144 165.545 145.464 165.475 145.784 165.335C146.114 165.195 146.394 164.98 146.624 164.69L147.689 165.77C147.349 166.2 146.934 166.535 146.444 166.775C145.964 167.015 145.379 167.135 144.689 167.135ZM144.509 160.685C143.999 160.685 143.579 160.845 143.249 161.165C142.919 161.485 142.709 161.915 142.619 162.455H146.069C146.089 161.835 145.954 161.385 145.664 161.105C145.374 160.825 144.989 160.685 144.509 160.685ZM156.299 159.455V167H154.439L154.499 165.68C154.229 166.14 153.874 166.5 153.434 166.76C153.004 167.01 152.509 167.135 151.949 167.135C151.289 167.135 150.729 166.985 150.269 166.685C149.809 166.375 149.459 165.95 149.219 165.41C148.979 164.87 148.859 164.25 148.859 163.55C148.859 162.71 149.024 161.975 149.354 161.345C149.684 160.705 150.134 160.205 150.704 159.845C151.284 159.485 151.934 159.305 152.654 159.305C153.134 159.305 153.559 159.41 153.929 159.62C154.299 159.82 154.584 160.09 154.784 160.43L154.964 159.455H156.299ZM152.789 160.925C152.169 160.925 151.674 161.16 151.304 161.63C150.934 162.1 150.749 162.715 150.749 163.475C150.749 164.125 150.889 164.63 151.169 164.99C151.449 165.35 151.834 165.53 152.324 165.53C152.724 165.53 153.084 165.415 153.404 165.185C153.734 164.955 153.994 164.635 154.184 164.225C154.374 163.815 154.469 163.345 154.469 162.815C154.469 162.225 154.319 161.765 154.019 161.435C153.719 161.095 153.309 160.925 152.789 160.925ZM158.242 167V159.425H160.072L159.982 161.33C160.272 160.68 160.667 160.18 161.167 159.83C161.667 159.48 162.237 159.305 162.877 159.305C163.727 159.305 164.367 159.6 164.797 160.19C165.237 160.77 165.452 161.605 165.442 162.695L165.412 167H163.582L163.612 162.845C163.622 162.255 163.527 161.805 163.327 161.495C163.137 161.175 162.827 161.015 162.397 161.015C162.067 161.015 161.762 161.11 161.482 161.3C161.202 161.49 160.957 161.815 160.747 162.275C160.537 162.725 160.372 163.34 160.252 164.12C160.132 164.89 160.067 165.85 160.057 167H158.242ZM169.11 159.425V167H167.28V159.425H169.11ZM168.195 158.225C167.835 158.225 167.55 158.115 167.34 157.895C167.13 157.675 167.025 157.41 167.025 157.1C167.025 156.79 167.13 156.525 167.34 156.305C167.55 156.085 167.835 155.975 168.195 155.975C168.555 155.975 168.84 156.085 169.05 156.305C169.26 156.525 169.365 156.79 169.365 157.1C169.365 157.41 169.26 157.675 169.05 157.895C168.84 158.115 168.555 158.225 168.195 158.225ZM171.059 167V159.425H172.889L172.799 161.33C173.089 160.68 173.484 160.18 173.984 159.83C174.484 159.48 175.054 159.305 175.694 159.305C176.544 159.305 177.184 159.6 177.614 160.19C178.054 160.77 178.269 161.605 178.259 162.695L178.229 167H176.399L176.429 162.845C176.439 162.255 176.344 161.805 176.144 161.495C175.954 161.175 175.644 161.015 175.214 161.015C174.884 161.015 174.579 161.11 174.299 161.3C174.019 161.49 173.774 161.815 173.564 162.275C173.354 162.725 173.189 163.34 173.069 164.12C172.949 164.89 172.884 165.85 172.874 167H171.059ZM182.828 170.15C182.388 170.15 181.913 170.105 181.403 170.015C180.903 169.925 180.488 169.775 180.158 169.565L180.608 167.975C180.938 168.145 181.293 168.28 181.673 168.38C182.063 168.48 182.478 168.53 182.918 168.53C183.808 168.53 184.438 168.32 184.808 167.9C185.178 167.48 185.383 166.82 185.423 165.92L185.453 165.455C185.173 165.925 184.818 166.285 184.388 166.535C183.968 166.775 183.473 166.895 182.903 166.895C182.223 166.895 181.643 166.75 181.163 166.46C180.693 166.17 180.338 165.765 180.098 165.245C179.858 164.725 179.738 164.13 179.738 163.46C179.738 162.65 179.898 161.935 180.218 161.315C180.548 160.685 180.998 160.195 181.568 159.845C182.148 159.485 182.813 159.305 183.563 159.305C184.063 159.305 184.498 159.41 184.868 159.62C185.238 159.82 185.523 160.09 185.723 160.43L185.903 159.455H187.238V165.695C187.238 167.185 186.848 168.3 186.068 169.04C185.288 169.78 184.208 170.15 182.828 170.15ZM183.698 160.925C183.068 160.925 182.563 161.15 182.183 161.6C181.813 162.05 181.628 162.63 181.628 163.34C181.628 163.96 181.773 164.44 182.063 164.78C182.353 165.12 182.748 165.29 183.248 165.29C183.658 165.29 184.023 165.18 184.343 164.96C184.673 164.73 184.933 164.42 185.123 164.03C185.313 163.64 185.408 163.2 185.408 162.71C185.408 162.15 185.253 161.715 184.943 161.405C184.633 161.085 184.218 160.925 183.698 160.925ZM196.397 159.305C197.527 159.305 198.412 159.645 199.052 160.325C199.702 160.995 200.027 161.905 200.027 163.055C200.027 163.835 199.862 164.535 199.532 165.155C199.212 165.765 198.757 166.25 198.167 166.61C197.577 166.96 196.892 167.135 196.112 167.135C194.982 167.135 194.092 166.8 193.442 166.13C192.802 165.46 192.482 164.545 192.482 163.385C192.482 162.605 192.642 161.91 192.962 161.3C193.292 160.68 193.747 160.195 194.327 159.845C194.917 159.485 195.607 159.305 196.397 159.305ZM196.172 165.53C196.762 165.53 197.237 165.305 197.597 164.855C197.957 164.405 198.137 163.805 198.137 163.055C198.137 162.375 197.977 161.85 197.657 161.48C197.347 161.11 196.917 160.925 196.367 160.925C195.757 160.925 195.272 161.15 194.912 161.6C194.552 162.05 194.372 162.645 194.372 163.385C194.372 164.065 194.527 164.595 194.837 164.975C195.157 165.345 195.602 165.53 196.172 165.53ZM204.031 167.135C203.191 167.135 202.556 166.85 202.126 166.28C201.706 165.71 201.501 164.92 201.511 163.91L201.541 159.425H203.371L203.341 163.745C203.331 164.265 203.421 164.675 203.611 164.975C203.801 165.275 204.101 165.425 204.511 165.425C204.831 165.425 205.126 165.33 205.396 165.14C205.676 164.95 205.916 164.63 206.116 164.18C206.316 163.72 206.471 163.105 206.581 162.335C206.701 161.555 206.761 160.585 206.761 159.425H208.531V167H206.686L206.791 165.275C206.491 165.885 206.101 166.35 205.621 166.67C205.151 166.98 204.621 167.135 204.031 167.135ZM215.338 161.195C215.138 161.125 214.883 161.09 214.573 161.09C214.033 161.09 213.598 161.29 213.268 161.69C212.938 162.08 212.693 162.71 212.533 163.58C212.383 164.44 212.308 165.58 212.308 167H210.493V162.11L210.478 159.425H212.308L212.218 161.54C212.478 160.73 212.838 160.155 213.298 159.815C213.768 159.475 214.268 159.305 214.798 159.305C214.958 159.305 215.108 159.315 215.248 159.335C215.388 159.355 215.518 159.385 215.638 159.425L215.338 161.195ZM223.459 167.135C222.549 167.135 221.839 166.885 221.329 166.385C220.829 165.885 220.584 165.23 220.594 164.42L220.654 160.955H219.364V159.425H220.684L220.699 157.865H222.529L222.499 159.425H224.974V160.955H222.484L222.439 164.225C222.429 164.635 222.529 164.96 222.739 165.2C222.959 165.43 223.284 165.545 223.714 165.545C223.944 165.545 224.159 165.515 224.359 165.455C224.559 165.395 224.769 165.285 224.989 165.125L225.529 166.535C225.299 166.735 225.004 166.885 224.644 166.985C224.284 167.085 223.889 167.135 223.459 167.135ZM229.797 167.135C228.977 167.135 228.267 166.985 227.667 166.685C227.077 166.375 226.622 165.935 226.302 165.365C225.982 164.795 225.822 164.115 225.822 163.325C225.822 162.535 225.987 161.84 226.317 161.24C226.647 160.63 227.092 160.155 227.652 159.815C228.222 159.475 228.867 159.305 229.587 159.305C230.757 159.305 231.617 159.705 232.167 160.505C232.727 161.295 232.922 162.39 232.752 163.79H227.682C227.722 164.32 227.937 164.745 228.327 165.065C228.717 165.385 229.252 165.545 229.932 165.545C230.252 165.545 230.572 165.475 230.892 165.335C231.222 165.195 231.502 164.98 231.732 164.69L232.797 165.77C232.457 166.2 232.042 166.535 231.552 166.775C231.072 167.015 230.487 167.135 229.797 167.135ZM229.617 160.685C229.107 160.685 228.687 160.845 228.357 161.165C228.027 161.485 227.817 161.915 227.727 162.455H231.177C231.197 161.835 231.062 161.385 230.772 161.105C230.482 160.825 230.097 160.685 229.617 160.685ZM241.406 159.455V167H239.546L239.606 165.68C239.336 166.14 238.981 166.5 238.541 166.76C238.111 167.01 237.616 167.135 237.056 167.135C236.396 167.135 235.836 166.985 235.376 166.685C234.916 166.375 234.566 165.95 234.326 165.41C234.086 164.87 233.966 164.25 233.966 163.55C233.966 162.71 234.131 161.975 234.461 161.345C234.791 160.705 235.241 160.205 235.811 159.845C236.391 159.485 237.041 159.305 237.761 159.305C238.241 159.305 238.666 159.41 239.036 159.62C239.406 159.82 239.691 160.09 239.891 160.43L240.071 159.455H241.406ZM237.896 160.925C237.276 160.925 236.781 161.16 236.411 161.63C236.041 162.1 235.856 162.715 235.856 163.475C235.856 164.125 235.996 164.63 236.276 164.99C236.556 165.35 236.941 165.53 237.431 165.53C237.831 165.53 238.191 165.415 238.511 165.185C238.841 164.955 239.101 164.635 239.291 164.225C239.481 163.815 239.576 163.345 239.576 162.815C239.576 162.225 239.426 161.765 239.126 161.435C238.826 161.095 238.416 160.925 237.896 160.925ZM243.35 167V159.425H245.18L245.09 161.285C245.4 160.595 245.8 160.095 246.29 159.785C246.79 159.465 247.325 159.305 247.895 159.305C248.445 159.305 248.93 159.455 249.35 159.755C249.77 160.055 250.07 160.525 250.25 161.165C250.57 160.535 250.99 160.07 251.51 159.77C252.04 159.46 252.585 159.305 253.145 159.305C253.985 159.305 254.62 159.6 255.05 160.19C255.49 160.77 255.705 161.605 255.695 162.695L255.665 167H253.835L253.865 162.755C253.865 162.205 253.765 161.78 253.565 161.48C253.365 161.17 253.055 161.015 252.635 161.015C252.345 161.015 252.065 161.11 251.795 161.3C251.535 161.48 251.3 161.795 251.09 162.245C250.89 162.695 250.73 163.31 250.61 164.09C250.49 164.86 250.425 165.83 250.415 167H248.6V162.755C248.6 162.205 248.505 161.78 248.315 161.48C248.125 161.17 247.82 161.015 247.4 161.015C247.11 161.015 246.83 161.11 246.56 161.3C246.3 161.48 246.065 161.795 245.855 162.245C245.655 162.695 245.49 163.31 245.36 164.09C245.24 164.86 245.175 165.83 245.165 167H243.35ZM260.199 167.135C259.159 167.135 258.364 166.94 257.814 166.55C257.264 166.15 256.944 165.595 256.854 164.885L258.399 164.51C258.459 164.89 258.634 165.185 258.924 165.395C259.214 165.595 259.629 165.695 260.169 165.695C260.609 165.695 260.939 165.625 261.159 165.485C261.389 165.345 261.504 165.155 261.504 164.915C261.504 164.675 261.379 164.49 261.129 164.36C260.889 164.23 260.514 164.115 260.004 164.015C259.434 163.905 258.944 163.765 258.534 163.595C258.134 163.425 257.824 163.195 257.604 162.905C257.394 162.605 257.289 162.215 257.289 161.735C257.289 161.275 257.419 160.865 257.679 160.505C257.939 160.135 258.294 159.845 258.744 159.635C259.204 159.415 259.729 159.305 260.319 159.305C261.109 159.305 261.754 159.49 262.254 159.86C262.764 160.23 263.069 160.705 263.169 161.285L261.654 161.69C261.584 161.4 261.434 161.175 261.204 161.015C260.974 160.845 260.664 160.76 260.274 160.76C259.884 160.76 259.584 160.84 259.374 161C259.174 161.16 259.074 161.36 259.074 161.6C259.074 161.84 259.189 162.03 259.419 162.17C259.659 162.3 260.064 162.425 260.634 162.545C261.164 162.655 261.624 162.795 262.014 162.965C262.414 163.125 262.729 163.35 262.959 163.64C263.189 163.92 263.304 164.3 263.304 164.78C263.304 165.25 263.169 165.665 262.899 166.025C262.639 166.375 262.274 166.65 261.804 166.85C261.334 167.04 260.799 167.135 260.199 167.135ZM275.347 159.455V167H273.487L273.547 165.68C273.277 166.14 272.922 166.5 272.482 166.76C272.052 167.01 271.557 167.135 270.997 167.135C270.337 167.135 269.777 166.985 269.317 166.685C268.857 166.375 268.507 165.95 268.267 165.41C268.027 164.87 267.907 164.25 267.907 163.55C267.907 162.71 268.072 161.975 268.402 161.345C268.732 160.705 269.182 160.205 269.752 159.845C270.332 159.485 270.982 159.305 271.702 159.305C272.182 159.305 272.607 159.41 272.977 159.62C273.347 159.82 273.632 160.09 273.832 160.43L274.012 159.455H275.347ZM271.837 160.925C271.217 160.925 270.722 161.16 270.352 161.63C269.982 162.1 269.797 162.715 269.797 163.475C269.797 164.125 269.937 164.63 270.217 164.99C270.497 165.35 270.882 165.53 271.372 165.53C271.772 165.53 272.132 165.415 272.452 165.185C272.782 164.955 273.042 164.635 273.232 164.225C273.422 163.815 273.517 163.345 273.517 162.815C273.517 162.225 273.367 161.765 273.067 161.435C272.767 161.095 272.357 160.925 271.837 160.925ZM279.48 167.135C278.76 167.135 278.215 166.94 277.845 166.55C277.475 166.16 277.29 165.605 277.29 164.885V155.9H279.12V164.735C279.12 165.275 279.37 165.545 279.87 165.545C280.12 165.545 280.34 165.485 280.53 165.365L280.98 166.7C280.82 166.82 280.605 166.92 280.335 167C280.065 167.09 279.78 167.135 279.48 167.135ZM291.637 159.425H293.452L290.767 167H288.517L287.032 161.945L285.262 167H283.012L280.627 159.425H282.532L284.212 165.215L286.192 159.425H287.992L289.657 165.26L291.637 159.425ZM301.216 159.455V167H299.356L299.416 165.68C299.146 166.14 298.791 166.5 298.351 166.76C297.921 167.01 297.426 167.135 296.866 167.135C296.206 167.135 295.646 166.985 295.186 166.685C294.726 166.375 294.376 165.95 294.136 165.41C293.896 164.87 293.776 164.25 293.776 163.55C293.776 162.71 293.941 161.975 294.271 161.345C294.601 160.705 295.051 160.205 295.621 159.845C296.201 159.485 296.851 159.305 297.571 159.305C298.051 159.305 298.476 159.41 298.846 159.62C299.216 159.82 299.501 160.09 299.701 160.43L299.881 159.455H301.216ZM297.706 160.925C297.086 160.925 296.591 161.16 296.221 161.63C295.851 162.1 295.666 162.715 295.666 163.475C295.666 164.125 295.806 164.63 296.086 164.99C296.366 165.35 296.751 165.53 297.241 165.53C297.641 165.53 298.001 165.415 298.321 165.185C298.651 164.955 298.911 164.635 299.101 164.225C299.291 163.815 299.386 163.345 299.386 162.815C299.386 162.225 299.236 161.765 298.936 161.435C298.636 161.095 298.226 160.925 297.706 160.925ZM305.814 170.15C305.364 170.15 304.884 170.105 304.374 170.015C303.874 169.925 303.459 169.775 303.129 169.565L303.579 167.975C303.919 168.145 304.279 168.28 304.659 168.38C305.039 168.48 305.454 168.53 305.904 168.53C306.784 168.53 307.409 168.32 307.779 167.9C308.149 167.49 308.354 166.83 308.394 165.92L308.454 164.93C308.154 165.57 307.754 166.06 307.254 166.4C306.764 166.73 306.214 166.895 305.604 166.895C304.754 166.895 304.114 166.61 303.684 166.04C303.254 165.47 303.044 164.68 303.054 163.67L303.084 159.425H304.914L304.884 163.52C304.884 164.04 304.974 164.45 305.154 164.75C305.344 165.04 305.649 165.185 306.069 165.185C306.529 165.185 306.929 165.01 307.269 164.66C307.609 164.3 307.874 163.705 308.064 162.875C308.264 162.035 308.369 160.885 308.379 159.425H310.149V165.695C310.149 167.215 309.769 168.335 309.009 169.055C308.249 169.785 307.184 170.15 305.814 170.15ZM314.75 167.135C313.71 167.135 312.915 166.94 312.365 166.55C311.815 166.15 311.495 165.595 311.405 164.885L312.95 164.51C313.01 164.89 313.185 165.185 313.475 165.395C313.765 165.595 314.18 165.695 314.72 165.695C315.16 165.695 315.49 165.625 315.71 165.485C315.94 165.345 316.055 165.155 316.055 164.915C316.055 164.675 315.93 164.49 315.68 164.36C315.44 164.23 315.065 164.115 314.555 164.015C313.985 163.905 313.495 163.765 313.085 163.595C312.685 163.425 312.375 163.195 312.155 162.905C311.945 162.605 311.84 162.215 311.84 161.735C311.84 161.275 311.97 160.865 312.23 160.505C312.49 160.135 312.845 159.845 313.295 159.635C313.755 159.415 314.28 159.305 314.87 159.305C315.66 159.305 316.305 159.49 316.805 159.86C317.315 160.23 317.62 160.705 317.72 161.285L316.205 161.69C316.135 161.4 315.985 161.175 315.755 161.015C315.525 160.845 315.215 160.76 314.825 160.76C314.435 160.76 314.135 160.84 313.925 161C313.725 161.16 313.625 161.36 313.625 161.6C313.625 161.84 313.74 162.03 313.97 162.17C314.21 162.3 314.615 162.425 315.185 162.545C315.715 162.655 316.175 162.795 316.565 162.965C316.965 163.125 317.28 163.35 317.51 163.64C317.74 163.92 317.855 164.3 317.855 164.78C317.855 165.25 317.72 165.665 317.45 166.025C317.19 166.375 316.825 166.65 316.355 166.85C315.885 167.04 315.35 167.135 314.75 167.135ZM146.345 180.9V192H144.485L144.545 190.68C144.275 191.15 143.925 191.51 143.495 191.76C143.065 192.01 142.565 192.135 141.995 192.135C141.335 192.135 140.775 191.985 140.315 191.685C139.855 191.375 139.505 190.95 139.265 190.41C139.025 189.87 138.905 189.25 138.905 188.55C138.905 187.71 139.07 186.975 139.4 186.345C139.73 185.705 140.18 185.205 140.75 184.845C141.33 184.485 141.98 184.305 142.7 184.305C143.08 184.305 143.425 184.37 143.735 184.5C144.055 184.63 144.32 184.81 144.53 185.04L144.515 184.425V180.9H146.345ZM142.835 185.925C142.215 185.925 141.72 186.16 141.35 186.63C140.98 187.1 140.795 187.715 140.795 188.475C140.795 189.125 140.935 189.63 141.215 189.99C141.495 190.35 141.88 190.53 142.37 190.53C142.77 190.53 143.13 190.415 143.45 190.185C143.78 189.955 144.04 189.635 144.23 189.225C144.42 188.815 144.515 188.345 144.515 187.815C144.515 187.225 144.365 186.765 144.065 186.435C143.765 186.095 143.355 185.925 142.835 185.925ZM151.903 192.135C151.083 192.135 150.373 191.985 149.773 191.685C149.183 191.375 148.728 190.935 148.408 190.365C148.088 189.795 147.928 189.115 147.928 188.325C147.928 187.535 148.093 186.84 148.423 186.24C148.753 185.63 149.198 185.155 149.758 184.815C150.328 184.475 150.973 184.305 151.693 184.305C152.863 184.305 153.723 184.705 154.273 185.505C154.833 186.295 155.028 187.39 154.858 188.79H149.788C149.828 189.32 150.043 189.745 150.433 190.065C150.823 190.385 151.358 190.545 152.038 190.545C152.358 190.545 152.678 190.475 152.998 190.335C153.328 190.195 153.608 189.98 153.838 189.69L154.903 190.77C154.563 191.2 154.148 191.535 153.658 191.775C153.178 192.015 152.593 192.135 151.903 192.135ZM151.723 185.685C151.213 185.685 150.793 185.845 150.463 186.165C150.133 186.485 149.923 186.915 149.833 187.455H153.283C153.303 186.835 153.168 186.385 152.878 186.105C152.588 185.825 152.203 185.685 151.723 185.685ZM158.623 192.135C157.903 192.135 157.358 191.94 156.988 191.55C156.618 191.16 156.433 190.605 156.433 189.885V180.9H158.263V189.735C158.263 190.275 158.513 190.545 159.013 190.545C159.263 190.545 159.483 190.485 159.673 190.365L160.123 191.7C159.963 191.82 159.748 191.92 159.478 192C159.208 192.09 158.923 192.135 158.623 192.135ZM162.643 184.425V192H160.813V184.425H162.643ZM161.728 183.225C161.368 183.225 161.083 183.115 160.873 182.895C160.663 182.675 160.558 182.41 160.558 182.1C160.558 181.79 160.663 181.525 160.873 181.305C161.083 181.085 161.368 180.975 161.728 180.975C162.088 180.975 162.373 181.085 162.583 181.305C162.793 181.525 162.898 181.79 162.898 182.1C162.898 182.41 162.793 182.675 162.583 182.895C162.373 183.115 162.088 183.225 161.728 183.225ZM169.827 184.425H171.657L168.822 192H166.212L163.812 184.425H165.792L167.622 190.515L169.827 184.425ZM175.854 192.135C175.034 192.135 174.324 191.985 173.724 191.685C173.134 191.375 172.679 190.935 172.359 190.365C172.039 189.795 171.879 189.115 171.879 188.325C171.879 187.535 172.044 186.84 172.374 186.24C172.704 185.63 173.149 185.155 173.709 184.815C174.279 184.475 174.924 184.305 175.644 184.305C176.814 184.305 177.674 184.705 178.224 185.505C178.784 186.295 178.979 187.39 178.809 188.79H173.739C173.779 189.32 173.994 189.745 174.384 190.065C174.774 190.385 175.309 190.545 175.989 190.545C176.309 190.545 176.629 190.475 176.949 190.335C177.279 190.195 177.559 189.98 177.789 189.69L178.854 190.77C178.514 191.2 178.099 191.535 177.609 191.775C177.129 192.015 176.544 192.135 175.854 192.135ZM175.674 185.685C175.164 185.685 174.744 185.845 174.414 186.165C174.084 186.485 173.874 186.915 173.784 187.455H177.234C177.254 186.835 177.119 186.385 176.829 186.105C176.539 185.825 176.154 185.685 175.674 185.685ZM185.243 186.195C185.043 186.125 184.788 186.09 184.478 186.09C183.938 186.09 183.503 186.29 183.173 186.69C182.843 187.08 182.598 187.71 182.438 188.58C182.288 189.44 182.213 190.58 182.213 192H180.398V187.11L180.383 184.425H182.213L182.123 186.54C182.383 185.73 182.743 185.155 183.203 184.815C183.673 184.475 184.173 184.305 184.703 184.305C184.863 184.305 185.013 184.315 185.153 184.335C185.293 184.355 185.423 184.385 185.543 184.425L185.243 186.195ZM186.935 192.135C186.545 192.135 186.235 192.015 186.005 191.775C185.775 191.535 185.66 191.24 185.66 190.89C185.66 190.54 185.775 190.245 186.005 190.005C186.235 189.765 186.545 189.645 186.935 189.645C187.325 189.645 187.635 189.765 187.865 190.005C188.095 190.245 188.21 190.54 188.21 190.89C188.21 191.24 188.095 191.535 187.865 191.775C187.635 192.015 187.325 192.135 186.935 192.135Z" fill="white"/>
<path d="M91.5048 98.758H85.6368V101.296H91.1268V103.834H85.6368V106.462H91.6848L91.5048 109H82.7568V96.22H91.5048V98.758ZM101.896 99.874V109H99.124L99.214 107.632C98.554 108.664 97.576 109.18 96.28 109.18C95.464 109.18 94.768 108.994 94.192 108.622C93.616 108.25 93.178 107.734 92.878 107.074C92.578 106.414 92.428 105.658 92.428 104.806C92.428 103.786 92.638 102.892 93.058 102.124C93.478 101.356 94.042 100.762 94.75 100.342C95.458 99.91 96.25 99.694 97.126 99.694C97.702 99.694 98.212 99.814 98.656 100.054C99.1 100.282 99.442 100.588 99.682 100.972L99.916 99.874H101.896ZM97.396 102.088C96.736 102.088 96.214 102.334 95.83 102.826C95.458 103.318 95.272 103.948 95.272 104.716C95.272 105.376 95.416 105.886 95.704 106.246C96.004 106.606 96.406 106.786 96.91 106.786C97.522 106.786 98.044 106.534 98.476 106.03C98.92 105.526 99.142 104.866 99.142 104.05C99.142 103.438 98.986 102.958 98.674 102.61C98.362 102.262 97.936 102.088 97.396 102.088ZM107.389 109.18C106.057 109.18 105.049 108.934 104.365 108.442C103.681 107.938 103.279 107.278 103.159 106.462L105.445 105.886C105.517 106.234 105.715 106.516 106.039 106.732C106.363 106.936 106.807 107.038 107.371 107.038C108.271 107.038 108.721 106.828 108.721 106.408C108.721 106.192 108.589 106.03 108.325 105.922C108.073 105.802 107.659 105.688 107.083 105.58C106.003 105.388 105.163 105.082 104.563 104.662C103.975 104.242 103.681 103.6 103.681 102.736C103.681 102.148 103.849 101.626 104.185 101.17C104.521 100.714 104.983 100.354 105.571 100.09C106.159 99.826 106.837 99.694 107.605 99.694C108.601 99.694 109.423 99.928 110.071 100.396C110.731 100.864 111.121 101.44 111.241 102.124L108.991 102.736C108.907 102.472 108.739 102.256 108.487 102.088C108.247 101.92 107.917 101.836 107.497 101.836C107.101 101.836 106.807 101.902 106.615 102.034C106.435 102.166 106.345 102.322 106.345 102.502C106.345 102.718 106.471 102.892 106.723 103.024C106.975 103.144 107.419 103.27 108.055 103.402C108.703 103.522 109.273 103.69 109.765 103.906C110.269 104.11 110.659 104.398 110.935 104.77C111.223 105.13 111.367 105.622 111.367 106.246C111.367 106.834 111.193 107.35 110.845 107.794C110.509 108.238 110.041 108.58 109.441 108.82C108.841 109.06 108.157 109.18 107.389 109.18ZM116.053 112.78C115.681 112.78 115.285 112.75 114.865 112.69C114.445 112.642 114.037 112.564 113.641 112.456C113.257 112.348 112.933 112.204 112.669 112.024L113.317 109.684C113.737 109.888 114.175 110.05 114.631 110.17C115.099 110.302 115.627 110.368 116.215 110.368C117.211 110.368 117.919 110.14 118.339 109.684C118.771 109.228 119.017 108.514 119.077 107.542L119.131 106.804C118.759 107.44 118.291 107.938 117.727 108.298C117.163 108.646 116.527 108.82 115.819 108.82C114.739 108.82 113.929 108.46 113.389 107.74C112.849 107.02 112.585 106.012 112.597 104.716L112.633 99.838H115.387L115.351 104.518C115.351 105.058 115.447 105.484 115.639 105.796C115.831 106.108 116.143 106.264 116.575 106.264C117.067 106.264 117.493 106.066 117.853 105.67C118.213 105.274 118.495 104.614 118.699 103.69C118.903 102.754 119.017 101.47 119.041 99.838H121.705V107.218C121.705 109.138 121.195 110.542 120.175 111.43C119.167 112.33 117.793 112.78 116.053 112.78ZM132.473 109.18C131.345 109.18 130.451 108.868 129.791 108.244C129.131 107.608 128.807 106.774 128.819 105.742L128.891 102.124H127.379V99.838H128.927L128.945 97.966H131.681L131.663 99.838H134.525V102.124H131.627L131.573 105.436C131.573 105.868 131.687 106.204 131.915 106.444C132.143 106.684 132.485 106.804 132.941 106.804C133.205 106.804 133.457 106.774 133.697 106.714C133.949 106.642 134.207 106.51 134.471 106.318L135.263 108.424C134.651 108.928 133.721 109.18 132.473 109.18ZM140.357 99.694C141.785 99.694 142.901 100.102 143.705 100.918C144.521 101.734 144.929 102.838 144.929 104.23C144.929 105.178 144.725 106.024 144.316 106.768C143.909 107.512 143.333 108.1 142.589 108.532C141.845 108.964 140.969 109.18 139.961 109.18C138.545 109.18 137.429 108.772 136.613 107.956C135.809 107.14 135.406 106.042 135.406 104.662C135.406 103.702 135.611 102.85 136.019 102.106C136.427 101.362 137.003 100.774 137.747 100.342C138.491 99.91 139.361 99.694 140.357 99.694ZM140.087 106.786C140.699 106.786 141.185 106.558 141.545 106.102C141.917 105.634 142.103 105.01 142.103 104.23C142.103 103.558 141.941 103.036 141.617 102.664C141.293 102.28 140.849 102.088 140.285 102.088C139.661 102.088 139.163 102.322 138.791 102.79C138.431 103.246 138.251 103.864 138.251 104.644C138.251 105.316 138.407 105.844 138.719 106.228C139.043 106.6 139.499 106.786 140.087 106.786ZM151.276 109V96.22H154.21V109H151.276ZM156.476 109V99.838H159.212L159.104 101.728C159.488 101.02 159.968 100.504 160.544 100.18C161.12 99.856 161.732 99.694 162.38 99.694C163.016 99.694 163.586 99.856 164.09 100.18C164.594 100.492 164.978 101.002 165.242 101.71C165.65 101.026 166.166 100.522 166.79 100.198C167.426 99.862 168.068 99.694 168.716 99.694C169.796 99.694 170.606 100.066 171.146 100.81C171.686 101.542 171.95 102.598 171.938 103.978L171.902 109H169.148L169.184 104.032C169.184 103.48 169.082 103.048 168.878 102.736C168.674 102.412 168.362 102.25 167.942 102.25C167.618 102.25 167.312 102.352 167.024 102.556C166.748 102.76 166.502 103.114 166.286 103.618C166.07 104.122 165.896 104.812 165.764 105.688C165.644 106.564 165.572 107.668 165.548 109H162.812V104.032C162.812 103.48 162.716 103.048 162.524 102.736C162.332 102.412 162.026 102.25 161.606 102.25C161.282 102.25 160.976 102.352 160.688 102.556C160.412 102.76 160.166 103.114 159.95 103.618C159.734 104.122 159.56 104.812 159.428 105.688C159.296 106.564 159.224 107.668 159.212 109H156.476ZM173.896 112.6V99.838H176.668L176.578 101.242C177.238 100.21 178.216 99.694 179.512 99.694C180.328 99.694 181.024 99.88 181.6 100.252C182.176 100.624 182.614 101.14 182.914 101.8C183.214 102.46 183.364 103.216 183.364 104.068C183.364 105.088 183.154 105.982 182.734 106.75C182.314 107.518 181.75 108.118 181.042 108.55C180.334 108.97 179.542 109.18 178.666 109.18C178.246 109.18 177.862 109.12 177.514 109C177.178 108.88 176.878 108.712 176.614 108.496L176.65 109V112.6H173.896ZM178.378 106.786C179.038 106.786 179.56 106.54 179.944 106.048C180.328 105.544 180.52 104.908 180.52 104.14C180.52 103.492 180.37 102.988 180.07 102.628C179.782 102.268 179.386 102.088 178.882 102.088C178.27 102.088 177.742 102.34 177.298 102.844C176.866 103.348 176.65 104.008 176.65 104.824C176.65 105.424 176.806 105.904 177.118 106.264C177.43 106.612 177.85 106.786 178.378 106.786ZM187.903 109.18C186.979 109.18 186.265 108.928 185.761 108.424C185.269 107.908 185.023 107.164 185.023 106.192V95.68H187.777V105.994C187.777 106.546 188.035 106.822 188.551 106.822C188.827 106.822 189.061 106.756 189.253 106.624L189.919 108.586C189.715 108.754 189.433 108.892 189.073 109C188.713 109.12 188.323 109.18 187.903 109.18ZM195.008 109.18C193.988 109.18 193.106 108.994 192.362 108.622C191.618 108.238 191.042 107.704 190.634 107.02C190.226 106.324 190.022 105.502 190.022 104.554C190.022 103.594 190.226 102.748 190.634 102.016C191.054 101.284 191.612 100.714 192.308 100.306C193.016 99.898 193.814 99.694 194.702 99.694C195.71 99.694 196.532 99.922 197.168 100.378C197.804 100.834 198.242 101.482 198.482 102.322C198.734 103.15 198.788 104.116 198.644 105.22H192.83C192.902 105.676 193.142 106.06 193.55 106.372C193.958 106.672 194.516 106.822 195.224 106.822C195.548 106.822 195.89 106.756 196.25 106.624C196.61 106.48 196.916 106.27 197.168 105.994L198.698 107.614C198.302 108.094 197.81 108.478 197.222 108.766C196.646 109.042 195.908 109.18 195.008 109.18ZM194.756 101.692C194.276 101.692 193.868 101.836 193.532 102.124C193.208 102.412 192.992 102.814 192.884 103.33H196.322C196.334 102.766 196.196 102.352 195.908 102.088C195.632 101.824 195.248 101.692 194.756 101.692ZM200.333 109V99.838H203.069L202.961 101.728C203.345 101.02 203.825 100.504 204.401 100.18C204.977 99.856 205.589 99.694 206.237 99.694C206.873 99.694 207.443 99.856 207.947 100.18C208.451 100.492 208.835 101.002 209.099 101.71C209.507 101.026 210.023 100.522 210.647 100.198C211.283 99.862 211.925 99.694 212.573 99.694C213.653 99.694 214.463 100.066 215.003 100.81C215.543 101.542 215.807 102.598 215.795 103.978L215.759 109H213.005L213.041 104.032C213.041 103.48 212.939 103.048 212.735 102.736C212.531 102.412 212.219 102.25 211.799 102.25C211.475 102.25 211.169 102.352 210.881 102.556C210.605 102.76 210.359 103.114 210.143 103.618C209.927 104.122 209.753 104.812 209.621 105.688C209.501 106.564 209.429 107.668 209.405 109H206.669V104.032C206.669 103.48 206.573 103.048 206.381 102.736C206.189 102.412 205.883 102.25 205.463 102.25C205.139 102.25 204.833 102.352 204.545 102.556C204.269 102.76 204.023 103.114 203.807 103.618C203.591 104.122 203.417 104.812 203.285 105.688C203.153 106.564 203.081 107.668 203.069 109H200.333ZM222.271 109.18C221.251 109.18 220.369 108.994 219.625 108.622C218.881 108.238 218.305 107.704 217.897 107.02C217.489 106.324 217.285 105.502 217.285 104.554C217.285 103.594 217.489 102.748 217.897 102.016C218.317 101.284 218.875 100.714 219.571 100.306C220.279 99.898 221.077 99.694 221.965 99.694C222.973 99.694 223.795 99.922 224.431 100.378C225.067 100.834 225.505 101.482 225.745 102.322C225.997 103.15 226.051 104.116 225.907 105.22H220.093C220.165 105.676 220.405 106.06 220.813 106.372C221.221 106.672 221.779 106.822 222.487 106.822C222.811 106.822 223.153 106.756 223.513 106.624C223.873 106.48 224.179 106.27 224.431 105.994L225.961 107.614C225.565 108.094 225.073 108.478 224.485 108.766C223.909 109.042 223.171 109.18 222.271 109.18ZM222.019 101.692C221.539 101.692 221.131 101.836 220.795 102.124C220.471 102.412 220.255 102.814 220.147 103.33H223.585C223.597 102.766 223.459 102.352 223.171 102.088C222.895 101.824 222.511 101.692 222.019 101.692ZM227.597 109V99.838H230.333L230.207 101.8C230.579 101.128 231.053 100.612 231.629 100.252C232.217 99.88 232.871 99.694 233.591 99.694C234.683 99.694 235.499 100.066 236.039 100.81C236.579 101.542 236.843 102.598 236.831 103.978L236.795 109H234.041L234.077 104.176C234.089 103.552 233.993 103.078 233.789 102.754C233.597 102.418 233.285 102.25 232.853 102.25C232.493 102.25 232.163 102.358 231.863 102.574C231.563 102.778 231.299 103.132 231.071 103.636C230.855 104.14 230.681 104.83 230.549 105.706C230.417 106.582 230.345 107.68 230.333 109H227.597ZM242.934 109.18C241.806 109.18 240.912 108.868 240.252 108.244C239.592 107.608 239.268 106.774 239.28 105.742L239.352 102.124H237.84V99.838H239.388L239.406 97.966H242.142L242.124 99.838H244.986V102.124H242.088L242.034 105.436C242.034 105.868 242.148 106.204 242.376 106.444C242.604 106.684 242.946 106.804 243.402 106.804C243.666 106.804 243.918 106.774 244.158 106.714C244.41 106.642 244.668 106.51 244.932 106.318L245.724 108.424C245.112 108.928 244.182 109.18 242.934 109.18Z" fill="#F67E7E"/>
</g>
<circle cx="171" cy="44" r="28" fill="#2C6269"/>
<path fill-rule="evenodd" clip-rule="evenodd" d="M160.906 53.8125C160.906 55.0186 159.925 56 158.719 56H151.281C150.075 56 149.094 55.0186 149.094 53.8125V50.5471C147.036 50.0092 145.072 49.1948 143.235 48.1177L140.924 50.4287C140.071 51.2815 138.683 51.2815 137.831 50.4287L132.571 45.1693C131.719 44.3165 131.719 42.9288 132.571 42.076L134.882 39.7646C133.805 37.9283 132.991 35.9643 132.453 33.9062H129.188C127.981 33.9062 127 32.9249 127 31.7188V24.2812C127 23.0751 127.981 22.0938 129.188 22.0938H132.446C132.982 20.0323 133.795 18.0648 134.872 16.2251L132.571 13.924C131.719 13.0712 131.719 11.6835 132.571 10.8307L137.831 5.57129C138.683 4.71851 140.071 4.71851 140.924 5.57129L143.217 7.86475C145.059 6.78253 147.029 5.96478 149.094 5.42517V2.1875C149.094 0.981384 150.075 0 151.281 0H158.719C159.925 0 160.906 0.981384 160.906 2.1875V5.41791C162.974 5.95581 164.948 6.77271 166.792 7.85449L169.076 5.57129C169.929 4.71851 171.317 4.71851 172.169 5.57129L177.429 10.8307C178.281 11.6835 178.281 13.0712 177.429 13.9244L175.146 16.2076C176.227 18.052 177.044 20.0259 177.582 22.0938H180.812C182.019 22.0938 183 23.0751 183 24.2812V31.7188C183 32.9249 182.019 33.9062 180.812 33.9062H177.575C177.035 35.9711 176.217 37.9412 175.135 39.7826L177.428 42.076C178.281 42.9288 178.281 44.3165 177.428 45.1693L172.169 50.4287C171.317 51.2815 169.929 51.2815 169.076 50.4287L166.775 48.1276C164.935 49.2047 162.967 50.0181 160.906 50.5543V53.8125ZM143.071 45.641C143.275 45.641 143.478 45.6974 143.66 45.8127C145.741 47.1415 148.017 48.0853 150.424 48.618C150.925 48.7291 151.281 49.173 151.281 49.6862V53.8125H158.719V49.6921C158.719 49.1786 159.076 48.7343 159.578 48.624C161.988 48.0934 164.267 47.1509 166.352 45.823C166.784 45.5474 167.35 45.6094 167.713 45.9721L170.623 48.8817L175.882 43.6227L172.979 40.7195C172.615 40.3564 172.554 39.7894 172.831 39.3566C174.164 37.2717 175.112 34.9902 175.646 32.5762C175.757 32.0751 176.201 31.7188 176.714 31.7188H180.812V24.2812H176.72C176.206 24.2812 175.762 23.9241 175.652 23.4225C175.12 21.0051 174.174 18.7202 172.841 16.6318C172.565 16.199 172.626 15.6329 172.989 15.2698L175.882 12.3773L170.623 7.11835L167.73 10.0108C167.367 10.3735 166.801 10.4355 166.368 10.1595C164.28 8.82605 161.995 7.88055 159.578 7.34821C159.076 7.23798 158.719 6.79364 158.719 6.28009V2.1875H151.281V6.28607C151.281 6.79919 150.925 7.2431 150.424 7.35419C148.01 7.88867 145.728 8.83588 143.643 10.1693C143.211 10.4462 142.644 10.3846 142.281 10.0215L139.377 7.11835L134.118 12.3773L137.028 15.2873C137.391 15.6496 137.453 16.2157 137.177 16.6481C135.849 18.7326 134.907 21.012 134.376 23.4225C134.266 23.9241 133.821 24.2812 133.308 24.2812H129.188V31.7188H133.314C133.827 31.7188 134.271 32.0755 134.382 32.5762C134.915 34.9838 135.859 37.2593 137.187 39.3404C137.463 39.7732 137.402 40.3397 137.039 40.7025L134.118 43.6227L139.377 48.8821L142.298 45.9614C142.509 45.7504 142.789 45.641 143.071 45.641ZM143.708 39.2917C146.822 42.4046 150.911 43.9615 155 43.9615C159.089 43.9615 163.178 42.4046 166.292 39.2917C171.16 34.4241 172.365 27.0182 169.29 20.8641C169.02 20.3237 168.363 20.1041 167.823 20.3741C167.282 20.6441 167.063 21.3012 167.333 21.8417C169.987 27.1528 168.946 33.5439 164.745 37.7451C162.058 40.432 158.529 41.7753 155 41.7748C151.471 41.7744 147.942 40.4312 145.255 37.7451C139.882 32.3716 139.882 23.6284 145.255 18.2554C149.603 13.9077 156.38 12.9691 161.736 15.9726C162.263 16.2682 162.929 16.0807 163.225 15.5535C163.52 15.0267 163.333 14.3602 162.806 14.0649C159.83 12.3961 156.318 11.7219 152.917 12.1671C149.404 12.6268 146.22 14.1974 143.708 16.7083C137.482 22.9346 137.482 33.0654 143.708 39.2917ZM165.757 18.8138C165.468 18.8138 165.187 18.6976 164.983 18.4929C164.779 18.2896 164.663 18.0084 164.663 17.72C164.663 17.4321 164.779 17.1501 164.983 16.9467C165.186 16.7429 165.468 16.6263 165.757 16.6263C166.045 16.6263 166.327 16.7429 166.531 16.9467C166.734 17.1501 166.851 17.4321 166.851 17.72C166.851 18.0084 166.734 18.2896 166.531 18.4929C166.326 18.6976 166.045 18.8138 165.757 18.8138ZM153.456 36.0574C153.166 36.0574 152.888 35.9421 152.683 35.737L145.766 28.8199C145.339 28.3931 145.339 27.7005 145.766 27.2733L149.689 23.3499C149.894 23.1448 150.173 23.0298 150.463 23.0298C150.753 23.0298 151.031 23.1448 151.236 23.3499L153.456 25.5703L158.764 20.263C159.191 19.8358 159.883 19.8358 160.311 20.263L164.234 24.1864C164.661 24.6132 164.661 25.3058 164.234 25.733L154.23 35.737C154.025 35.9421 153.746 36.0574 153.456 36.0574ZM148.086 28.0466L153.456 33.4166L161.914 24.9597L159.537 22.5834L154.23 27.8906C154.025 28.0957 153.746 28.2111 153.456 28.2111C153.166 28.2111 152.888 28.0957 152.683 27.8906L150.463 25.6702L148.086 28.0466Z" fill="#79C8C7"/>
<defs>
<clipPath id="clip0_0_916">
<rect width="327" height="111" fill="white" transform="translate(0 88)"/>
</clipPath>
</defs>
</svg>
